<?xml version="1.0" encoding="UTF-8"?><svg id="Laag_1" xmlns="http://www.w3.org/2000/svg" viewBox="0 0 150 150"><path d="m79.77,20.09c.14-.81.09-1.51.1-2.19.01-1.2-.11-2.4-.02-3.6.02-.21.02-.42-.13-.57-.31-.32-.29-.72-.31-1.12-.02-.62.07-1.23,0-1.85-.06-.52.29-.83.96-.78.88.07,1.75-.05,2.63-.04.78.01.99.18,1.01.97.02.55.04,1.11.08,1.66.04.56-.15.91-.7,1.09-.3.1-.38.24-.37.54.03.91.06,1.81.15,2.71.03.33.08.68-.11.99-.19.33.05.66.01,1-.04.4-.1.82,0,1.25.1.44.34.74.72.92,1.52.7,2.68,1.84,3.73,3.11.74.89,1.47,1.8,1.93,2.87.63,1.44,1.43,2.81,1.7,4.39.13.73.29,1.44.31,2.2.03,1.31.04,2.63-.05,3.93-.05.84,0,1.68-.07,2.52-.06.68.14,1.37.15,2.07,0,.46-.16.89-.16,1.34,0,.95.02,1.91,0,2.86-.02.89.04,1.79,0,2.68-.05.89-.05,1.79-.07,2.68,0,.27-.22.4-.38.55-.13.11-.27.03-.33-.13-.07-.2-.17-.4-.15-.63.08-1.29-.01-2.59.05-3.88.08-1.59,0-3.18.15-4.76.09-.88-.03-1.79-.03-2.68,0-.96.03-1.92.03-2.88,0-1.23-.14-2.46.09-3.68.04-.19-.05-.4-.09-.59-.23-1.3-.53-2.57-1.08-3.78-.28-.62-.47-1.29-.84-1.85-.7-1.09-1.41-2.16-2.26-3.15-.73-.85-1.53-1.59-2.44-2.22-.05-.04-.09-.09-.15-.12-.23-.1-.48-.41-.72-.08-.32.43-.24.93.17,1.12.34.16.42.4.49.76.22,1.12.04,2.22-.01,3.33-.01.24-.09.49-.27.56-.42.16-.55.46-.59.86-.03.29-.18.51-.47.63-.4.17-.29.58-.27.86.05,1.02.01,2.03,0,3.04,0,.17,0,.34.03.51.04.21.2.27.39.23.2-.05.35-.15.28-.39-.07-.28-.15-.56-.24-.84-.06-.18-.1-.36-.07-.55.02-.15.06-.28.21-.33.15-.05.25.06.31.15.4.6.69,1.26.7,1.98.03,1.37.02,2.75-.08,4.12-.09,1.2-.06,2.39-.01,3.59.03.73.09,1.51,0,2.2-.21,1.69-.05,3.38-.11,5.07-.04.98-.2,1.99,0,2.99.02.12-.01.25,0,.37.02.22-.06.38-.29.4-.25.02-.38-.15-.39-.37-.03-.51-.05-1.02-.04-1.53.04-1.46-.04-2.93-.01-4.39.03-1.4,0-2.81.11-4.21.05-.66.05-1.32.06-1.98,0-.23-.13-.44-.39-.44-.24,0-.47.06-.55.34-.02.09,0,.19-.03.28-.06.26.05.64-.22.76-.38.17-.81.22-1.22.06-.19-.07-.22-.25-.27-.41-.03-.1,0-.22-.03-.32-.05-.15-.04-.39-.28-.34-.19.04-.17.23-.17.39,0,1.2.06,2.4,0,3.6-.06,1.2-.04,2.4-.07,3.6-.02.73-.02,1.48-.02,2.22,0,.78-.01,1.57-.08,2.35-.02.18-.01.36-.26.34-.25-.01-.36-.17-.36-.4.02-.99.08-1.97.07-2.96-.03-2.47.02-4.95.04-7.42,0-.65-.01-1.3,0-1.95,0-.29-.11-.47-.4-.54-.28-.07-.32.16-.44.31-.26.35-.25.77-.27,1.15-.08,1.33-.09,2.66-.07,3.99.02,1.16-.06,2.31-.03,3.47.03,1.3-.14,2.6.02,3.9.03.24-.12.44-.38.44-.27,0-.27-.23-.29-.44-.06-1.03.05-2.06.01-3.09-.06-1.41.03-2.81.01-4.21-.02-1.48-.08-2.96-.13-4.45-.03-.84.58-1.66,1.74-1.89.2-.04.4-.07.6-.07.82,0,.82-.12.82-.97,0-.64,0-1.27.09-1.89.03-.2,0-.27-.16-.36-.9-.54-1.83-.69-2.83-.3-.26.1-.53.16-.8.24-.18.05-.38.15-.49-.09-.11-.25.04-.43.25-.53.55-.25,1.12-.43,1.72-.52.11-.02.22-.01.32-.03.49-.09.68-.32.68-.82,0-.95,0-1.89,0-2.84,0-.08,0-.16.01-.23.03-.26.16-.48.42-.47.26,0,.27.29.25.48-.07.92.12,1.86-.09,2.78-.06.24-.02.49.07.73.05.14.12.28.28.26.16-.02.19-.17.22-.32.1-.49,0-.99,0-1.48,0-.82.11-1.63-.01-2.45-.03-.21-.11-.39-.2-.56-.05-.1-.14-.22-.25-.13-.34.26-.49-.02-.69-.2-.24-.2-.48-.4-.75-.55-.36-.2-.53-.08-.59.33-.02.19,0,.37,0,.55.02.41-.23.65-.66.64-.39,0-.54.14-.59.57-.08.82.04,1.65-.1,2.47-.02.11-.02.24-.08.31-.64.64-.54,1.56-.91,2.3-.03.07-.05.15-.04.23.13,1.52-.07,3.04.02,4.57.05.95-.1,1.91-.08,2.86.04,1.53-.08,3.06-.03,4.59.03,1.06-.02,2.13-.03,3.2,0,.52-.01,1.05,0,1.57,0,.27.15.36.4.26.19-.07.37-.18.56-.23.24-.06.48-.09.57.27.08.33.43.37.69.37,1.05.02,2.1-.02,3.15-.02,1.06,0,2.13.02,3.19.03,1.38.01,2.76.05,4.14,0,.54-.02,1.08.01,1.62.02.46,0,.92.04,1.38,0,.42-.04.51.2.37.46-.34.63-.07,1.27-.1,1.9-.06,1.1.03,2.22-.04,3.33-.03.41-.02.83,0,1.24.04.92-.02,1.83-.04,2.75-.02.73-.03,1.47,0,2.21.04.73-.02,1.48-.05,2.22-.04.93.07,1.85,0,2.77-.06.96-.03,1.92-.04,2.89,0,.09-.05.18-.07.27-.05.23-.23.37-.43.36-.21-.02-.26-.25-.28-.44-.03-.38-.03-.77-.03-1.16,0-1.19.13-2.37.07-3.55-.07-1.43-.04-2.87-.04-4.3,0-1.36.02-2.73.05-4.09.04-1.36,0-2.72,0-4.08,0-.35.06-.7.09-1.06.02-.22.05-.43-.02-.65-.18-.52-.31-.62-.85-.49-.3.07-.58-.01-.87-.03-.63-.04-1.27-.02-1.9-.01-.8,0-1.6,0-2.4,0-.2,0-.4-.01-.6,0-.19.02-.31.13-.3.34.1,1.65-.05,3.3,0,4.96.04,1.84-.08,3.68-.05,5.53.04,2.26-.01,4.52-.02,6.78,0,1.53-.03,3.06-.05,4.59,0,.23-.06.44-.3.52-.28.09-.3-.17-.36-.32-.1-.25-.3-.25-.5-.25-.21,0-.27.17-.33.34-.04.14.03.37-.18.38-.19,0-.12-.22-.14-.34-.06-.35-.31-.4-.59-.39-.31,0-.31.25-.32.47,0,.23,0,.47,0,.7,0,.1-.04.2-.15.2-.12,0-.14-.11-.14-.2-.02-.22-.03-.43-.03-.65,0-.34-.15-.48-.49-.47-.36.01-.48.26-.44.54.07.47,0,.93.04,1.39.03.3-.14.47-.36.5-.26.02-.29-.23-.28-.44.02-.91-.02-1.83.06-2.74.05-.56-.05-1.14-.04-1.71.02-2.08.03-4.17.03-6.25,0-1.9.08-3.79.13-5.68.03-1.06.02-2.13,0-3.19-.02-.78.19-1.54.09-2.31-.09-.63-.02-1.26-.05-1.89-.02-.38-.23-.43-.52-.43-.3,0-.6,0-.65.42-.05.47.05.92.04,1.39-.02,2.32,0,4.65-.05,6.97-.02.97-.03,1.94,0,2.91.03,1.09-.14,2.18-.06,3.27.09,1.22-.11,2.43.02,3.65.06.58-.05,1.2-.04,1.8.02.81.05,1.62-.14,2.43-.11.45-.41.72-.66,1.04-.34.44-.2,1.11.29,1.34.17.08.3-.02.4-.16.2-.29.4-.34.69-.1.42.35.83,0,1.18-.13,1.96-.76,3.89-1.59,5.84-2.38,1.76-.71,3.54-1.37,5.28-2.12.52-.22.63-.14.49.4-.2.81-.06,1.62-.07,2.43-.03,1.47-.05,2.93-.07,4.4,0,.19,0,.37,0,.56,0,.35.09.64.5.73.11.02.27.08.23.24-.03.15-.18.14-.31.15-.23.01-.46.03-.69.04-.43.01-.53-.3-.52-.62.01-1.48.08-2.96.07-4.43,0-.76,0-1.51.04-2.26.01-.2-.07-.42-.15-.62-.09-.21-.27-.17-.43-.09-1.54.73-3.17,1.24-4.73,1.91-.26.11-.52.19-.79.27-.63.19-.84.52-.86,1.15-.02.93.11,1.86-.07,2.79-.12.61.14.9.65.85.28-.03.45-.15.5-.45.11-.57.03-1.15.04-1.72,0-.46.01-.93.03-1.39,0-.11-.02-.29.16-.28.16,0,.16.17.17.29.07.74-.06,1.48-.04,2.23,0,.29.03.6,0,.88-.05.38.13.52.41.51.28,0,.63-.11.64-.48.04-1.2.16-2.4.1-3.61,0-.02,0-.03,0-.05,0-.19-.03-.51.17-.52.28,0,.17.32.17.49,0,1.05.09,2.11-.08,3.16-.01.08-.02.16-.01.23.03.24-.05.56.22.67.32.13.67.08.99-.09.11-.06.11-.16.12-.28.18-1.33.15-2.66.04-3.99-.02-.22-.13-.6.12-.61.34-.01.21.38.22.6.03,1.02.04,2.04.04,3.07,0,.33-.11.66-.08,1.01.04.4.3.44.58.46.3.03.42-.19.45-.43.04-.4.05-.8.05-1.2,0-.82-.01-1.63.05-2.45.03-.45-.08-.92-.12-1.38,0-.11-.01-.22.02-.32.04-.11.12-.24.27-.21.12.03.15.16.13.27-.17.72-.01,1.45-.03,2.17-.01.66.03,1.32,0,1.98-.02.68-.1,1.35.19,2,.1.22-.07.43-.32.33-.87-.35-1.77-.12-2.66-.21-.72-.07-1.45-.02-2.17-.05-.28-.01-.57-.07-.83.03-.58.2-1.09-.11-1.64-.17-.71-.07-1.42.11-2.13,0-.25-.04-.45.18-.44.39,0,.29.26.53.54.55.64.04,1.29,0,1.94.09.87.11,1.74-.05,2.62,0,.73.04,1.49.14,2.21.05.71-.08,1.42-.11,2.12-.14.7-.03,1.41.06,2.11.04.4,0,.8-.04,1.2-.04.63,0,1.08.36,1.14,1,.08.82.18,1.64.08,2.48-.13,1.12-.77,1.91-1.88,2.23-.19.06-.39.13-.55.24-.34.23-.48,0-.52-.25-.11-.7-.03-1.41-.02-2.12.02-.63.01-1.26-.02-1.88-.01-.18-.06-.36-.03-.55.06-.38-.14-.54-.49-.57-.38-.03-.44.21-.43.5,0,1.19,0,2.38.02,3.57,0,.37-.09.73-.02,1.1.03.15-.13.21-.25.23-.21.03-.32-.13-.33-.31-.04-.66-.15-1.33-.08-1.97.09-.8.05-1.59.05-2.39,0-.18-.05-.33-.18-.46-.1-.1-.18-.21-.35-.15-.19.07-.17.22-.19.38-.1.96.08,1.91.12,2.86.02.57-.17,1.13.02,1.7.03.08,0,.21-.12.22-.12.02-.16-.1-.17-.18-.04-.29-.1-.59-.07-.88.11-.97-.07-1.92-.1-2.88,0-.26.09-.52-.02-.78-.04-.1-.03-.24-.18-.22-.13.02-.13.15-.13.26-.02.39-.02.77-.04,1.16-.07,1.08,0,2.15-.02,3.22,0,.29-.08.48-.42.48-.33,0-.28-.24-.3-.46-.08-1.31.01-2.63-.02-3.94,0-.08,0-.16,0-.23-.01-.13-.08-.21-.21-.2-.14,0-.16.12-.16.23-.03,1.11-.19,2.21-.03,3.32.05.32-.04.67-.08,1.01-.02.17-.14.27-.31.31-.2.04-.28-.1-.35-.24-.2-.43-.1-.89-.07-1.33.02-.37.08-.75.02-1.11-.09-.52,0-1.03-.02-1.55,0-.24-.06-.5-.28-.51-.25-.01-.3.26-.29.49.06,1.12-.06,2.25.06,3.38.02.21-.05.43-.09.64-.02.14-.11.22-.26.22-.16,0-.21-.12-.22-.25-.01-.51-.03-1.02-.03-1.53,0-.82-.09-1.64.03-2.45.04-.29-.15-.44-.41-.45-.28-.01-.5.11-.51.42-.02.52-.05,1.05,0,1.58.05.66.09,1.32.05,1.98,0,.15.09.41-.18.38-.23-.02-.18-.26-.16-.42.1-1.05-.12-2.09-.04-3.14.05-.62-.02-.66-.65-.61-1.28.09-1.03-.07-1.04,1.12,0,.9,0,1.79,0,2.69,0,.12.03.29-.13.31-.2.02-.18-.17-.2-.3-.1-.87-.04-1.73-.04-2.6,0-1.1-.2-1.22-1.3-1.03-.84.15-1.7.05-2.55,0-.23-.02-.46-.04-.7.02-.24.06-.42.23-.38.46.04.27-.1.54-.05.77.13.57-.03,1.14.05,1.7.04.32-.1.64-.03.96.03.13-.07.24-.2.28-.17.05-.26-.06-.32-.2-.16-.37-.09-.76-.1-1.15-.02-.6,0-1.21.01-1.82,0-.35-.15-.52-.48-.39-.49.2-.99.18-1.46.06-.46-.12-.6.08-.58.44.05.87-.07,1.73,0,2.59.02.23.02.42-.23.48-.28.07-.39-.14-.46-.36-.11-.34-.08-.72-.03-1.05.09-.71,0-1.42.04-2.13.02-.33-.23-.54-.57-.55-1.11-.03-2.21-.17-3.32-.29-.68-.08-.73.01-.72.68.02,1.11.01,2.23-.01,3.34-.01.66.02.69.66.53.26-.06.51-.12.77-.17.14-.03.31-.08.38.07.27.61.83.37,1.25.38,1.14.03,2.29-.06,3.43.07.29.03.59-.05.88-.05,1.38,0,2.76,0,4.14-.01,1.19,0,2.38-.07,3.57-.03,1.16.04,2.31-.02,3.47.03.83.04,1.66.11,2.49.08.66-.03,1.32-.1,1.99-.09.45,0,.64.19.51.59-.12.37-.11.73-.11,1.09,0,.21,0,.42-.27.46-.28.04-.46-.09-.5-.36-.03-.2-.03-.4-.02-.6,0-.15-.02-.27-.15-.37-.18-.13-.39-.17-.58-.13-.25.05-.04.26-.06.39-.05.31-.13.62-.05.96.06.22-.1.44-.35.46-.27.02-.32-.21-.32-.42,0-.33,0-.65,0-.98.01-.39-.21-.57-.55-.5-.7.14-1.39-.1-2.08,0-.9.13-1.8-.05-2.71.02-1.01.08-2.04-.07-3.05-.02-1.3.06-2.59-.05-3.89.04-.23.02-.42.04-.39.38.08.89,0,1.79-.05,2.68-.02.41.1.79.07,1.2-.1,1.32,0,2.63.04,3.95,0,.11-.03.21-.05.32-.07.47.06.62.54.61,1.32-.03,2.63-.07,3.95-.1.46-.01.52-.4.51-.7-.09-1.49-.02-2.97-.01-4.46,0-.84-.05-1.67-.04-2.51,0-.22-.05-.51.23-.52.25,0,.18.29.18.46,0,.96.02,1.91-.05,2.87-.04.55.04,1.1.04,1.66,0,.8,0,1.6-.01,2.4-.02.66.02.71.67.69.19,0,.37-.01.56-.03.42-.05.57-.27.57-.69-.01-1.04,0-2.08,0-3.11,0-.08.03-.15.13-.18.17.12.17.33.16.5-.02.91.08,1.82-.03,2.73-.03.28-.02.61.38.6.38,0,.55-.28.53-.63-.04-.91-.05-1.82-.03-2.74,0-.11,0-.22.01-.33.02-.15.08-.28.25-.28.2,0,.29.14.28.3-.04.65.09,1.3.05,1.95-.02.39-.03.77-.03,1.16,0,.16-.03.34.21.31.2-.02.38-.06.38-.36-.03-1.13.07-2.26,0-3.38-.02-.29.06-.52.29-.69.11-.08.2-.02.29.06.21.2.26.43.21.72-.11.71,0,1.42,0,2.13,0,.26.08.51,0,.78-.06.17-.03.37.15.54.27-.4.09-.84.12-1.24.07-.92.07-1.85.12-2.77,0-.2.08-.43.33-.43.22,0,.31.21.32.39.04.65.07,1.29.09,1.94.02.48.02.96.03,1.44,0,.09.02.2.14.2.15,0,.17-.12.17-.23,0-.4-.02-.81-.02-1.21,0-.74.02-1.48.04-2.22,0-.13.02-.29.17-.27.19.02.21.22.19.37-.07.51-.03,1.02-.03,1.53,0,.51-.03,1.02-.04,1.53,0,.16-.04.38.21.4.22.02.33-.12.37-.33.1-.5.05-1.01.08-1.52.02-.42-.08-.85-.01-1.28.07-.42-.09-.83-.08-1.25,0-.21-.21-.29-.42-.25-1,.2-2,.41-3,.61-.2.04-.35.1-.36.34-.02.22-.2.38-.38.32-.53-.18-1.11-.07-1.63-.29-.23-.1-.31-.21-.15-.41.41-.5,1.01-.7,1.55-1,.17-.09.3.08.33.24.08.35.33.34.58.29.8-.17,1.58-.39,2.38-.52.74-.12,1.46-.39,2.21-.32.36.03.6-.22.92-.29.36-.08.57-.02.48.39-.21,1.04-.08,2.09-.15,3.13-.03.44.16.71.59.8.55.1,1,.35,1.43.71.49.41.58.89.5,1.49-.05.41,0,.83.02,1.25,0,.4-.01.81.34,1.12.14.12.09.34.07.53-.03.29.07.48.41.49.2,0,.4.06.6.1,1.12.19,1.51.69,1.41,1.83-.01.15-.04.31-.04.46.01.44-.2.71-.61.81-.24.06-.38.18-.47.4-.2.46-.11.71.38.75,1.1.08,2.17.31,3.27.39,1.43.1,2.84.42,4.25.68,1.55.29,3.06.73,4.6,1.09,1.21.29,2.33.84,3.36,1.56.32.22.55.55.64.89.15.58.47,1,.95,1.31.82.53.91,1.23.74,2.11-.06.34.07.65.05,1-.08,1.66-.12,3.32-.07,4.98.04,1.11-.08,2.23.08,3.33.12.82-.19,1.59-.28,2.38-.02.21-.19.42-.31.62-.55.94-1.36,1.6-2.25,2.2-.57.38-1.19.67-1.8.96-.87.42-1.82.69-2.75.99-.25.08-.37.16-.4.41-.02.22-.03.43.02.65.11.51.22,1.03.17,1.57-.03.33.1.54.45.58.53.07,1.07.14,1.6.2,1.01.11,1.97.38,2.76,1.05.45.38.53.94.62,1.46.11.67.1,1.35-.01,2.03-.09.52-.37.8-.85,1-.94.38-1.88.72-2.88.88-.63.1-1.26.19-1.88.28-.48.07-.63.25-.62.74.02,1.17-.59,1.94-1.72,2.2-.21.05-.39.03-.58-.06-.38-.18-.77-.34-1.14-.52-.38-.19-.56-.52-.6-.93-.02-.21-.03-.44,0-.65.08-.42-.2-.59-.5-.67-.47-.13-.96-.25-1.44-.26-.89-.02-1.73-.32-2.59-.47-.36-.06-.69-.25-1.04-.38-.31-.11-.42-.43-.45-.76-.09-.91-.16-1.82-.13-2.73.02-.61.36-1.02.84-1.3.88-.52,1.88-.67,2.88-.8.56-.07,1.11-.16,1.68-.17.26,0,.39-.23.36-.46-.05-.39-.04-.77,0-1.16.03-.35-.22-.54-.62-.48-1.5.21-3,.44-4.5.68-1.71.27-3.44.37-5.16.47-1.45.08-2.91.17-4.36.17-.91,0-1.82.06-2.73.11-.74.04-.8.15-.76.87.04.77.07,1.54-.04,2.32-.16,1.15-.89,1.72-1.87,2.1-1.18.46-2.43.52-3.67.66-1.06.12-2.12.16-3.18.13-1.31-.04-2.62-.21-3.92-.34-1.19-.12-2.3-.42-3.37-.94-.64-.31-1.21-1.46-1.17-2.18.03-.52-.03-1.05-.07-1.58-.07-1.02-.14-1.04-1.22-1.07-1.08-.03-2.18.16-3.24-.05-1.48-.28-2.98-.29-4.47-.47-1.44-.18-2.87-.42-4.29-.7-1.14-.23-2.33-.25-3.42-.74-.19-.08-.42-.08-.64-.09-.72-.04-.81.06-.7.79.02.15.05.31.07.46.04.3.18.47.51.5.71.06,1.42.12,2.12.24.68.12,1.37.26,1.96.64.51.32.85.75.79,1.43-.06.7-.03,1.41-.06,2.12-.02.46-.31.77-.66.99-.78.5-1.66.76-2.53,1.03-.26.08-.54.05-.78.02-.65-.09-1.24.21-1.86.26-.25.02-.38.25-.31.53.16.66-.04,1.17-.63,1.53-.29.18-.56.38-.83.6-.48.39-1.08.31-1.54-.13-.14-.14-.29-.29-.47-.38-.72-.34-.96-.92-.89-1.67.03-.31-.1-.53-.39-.6-.33-.07-.67-.08-1.01-.12-1.13-.14-2.27-.28-3.35-.68-.28-.11-.57-.29-.83-.45-.24-.15-.42-.4-.4-.7.06-.72-.06-1.42-.1-2.13-.04-.9.83-1.95,1.8-2.19,1.05-.26,2.11-.51,3.21-.36.36.05.62-.1.59-.47-.06-.7,0-1.39.09-2.08.06-.46-.17-.69-.54-.78-.92-.22-1.78-.62-2.68-.93-.65-.23-1.19-.6-1.71-1.05-.5-.44-1.01-.85-1.37-1.43-.21-.35-.38-.66-.28-1.12.1-.44.08-.93.01-1.38-.15-1.01.03-2.01-.01-3.01-.1-2.23.14-4.46.04-6.69-.02-.48.28-.91.54-1.3.25-.38.55-.75.98-.97.26-.13.45-.4.56-.67.46-1.11,1.37-1.74,2.38-2.25,1.01-.52,2.12-.73,3.21-1.03,1.57-.43,3.19-.64,4.77-1,.56-.13,1.16-.09,1.74-.17.87-.12,1.73-.27,2.59-.41.17-.03.35-.12.36-.32.02-.42.04-.84-.34-1.14-.82-.66-.78-1.99.08-2.63.33-.25.69-.39,1.11-.43.39-.04.78-.15,1.17-.25.17-.04.29-.18.37-.33.06-.11.11-.26.21-.3.52-.25.45-.69.42-1.14-.03-.39-.02-.78,0-1.16.06-1.16.61-1.78,1.75-2.02.09-.02.18-.04.27-.06.79-.16.95-.47.89-1.28-.07-.88-.04-1.78,0-2.66.02-.44-.04-.87-.02-1.32.03-.64.05-1.29.04-1.94,0-.4-.11-.69-.54-.87-.58-.23-1.03-.67-1.38-1.2-.17-.26-.22-.55-.19-.85.04-.44-.06-.86-.16-1.28-.21-.89.66-2.41,1.54-2.64.59-.15.84-.47.8-1.07-.04-.72.03-1.45,0-2.17-.04-1.18.03-2.36-.07-3.53-.06-.75.08-1.48.05-2.22-.02-.54-.07-1.08-.05-1.62.04-.89.07-1.78.07-2.67,0-.66,0-1.33,0-1.99-.01-.53.11-1.04.08-1.57-.08-1.7-.07-3.4.03-5.1.04-.8.03-1.6-.03-2.4-.03-.48.1-.95.05-1.44-.08-.68-.08-1.38-.06-2.06.04-1.14-.05-2.28-.02-3.41.02-.82.09-1.63.04-2.45-.08-1.14.05-2.29.04-3.43-.02-2.24,0-4.48.04-6.71.03-1.48-.14-2.98.12-4.45.27-1.51.42-3.04.95-4.52.35-.98.76-1.93,1.22-2.84.33-.65.86-1.21,1.33-1.78.38-.46.82-.88,1.22-1.33.53-.6,1.11-1.14,1.79-1.58,1.1-.72,2.16-1.51,3.4-1.98,1.07-.4,2.18-.7,3.29-.97.2-.05.49-.08.56.18.07.27-.19.4-.39.51-.54.29-1.14.4-1.72.55-.81.22-1.56.56-2.32.91-.27.12-.55.22-.81.35-.28.14-.57.2-.25.68.22.33.19.88.13,1.31-.14,1.13-.03,2.26-.04,3.39-.02,1.32,0,2.63.01,3.95,0,.16-.02.35-.23.33-.21-.01-.14-.21-.14-.34.08-1.68-.07-3.37,0-5.05.05-1.14-.05-2.29-.07-3.43,0-.29-.1-.31-.34-.22-.25.1-.43.3-.64.45-.28.2-.02.45-.02.68,0,.45-.11.88-.06,1.34.11,1.15-.01,2.3.07,3.45.05.75-.02,1.54-.03,2.3-.02,1.07.03,2.14.04,3.2,0,.36,0,.72-.04,1.07-.16,1.26-.01,2.53-.06,3.79-.07,1.72.02,3.44-.06,5.15-.07,1.63.03,3.26-.03,4.88-.06,1.86.07,3.72-.1,5.57-.07.77.14,1.54.08,2.32-.15,2.19-.07,4.39-.11,6.59-.02,1.28.08,2.56-.02,3.83-.13,1.58.17,3.17,0,4.73-.22,2.03.15,4.05.04,6.08-.05.86-.09,1.73-.15,2.59-.01.19.04.37.06.55.05.52.41.47.75.44.37-.03.4-.27.4-.6,0-.54.2-1.05.14-1.61-.08-.64-.11-1.29-.05-1.93.08-.79.11-1.58.04-2.36-.16-1.79-.14-3.59-.13-5.38,0-1.86,0-3.71.06-5.57.02-.66.08-1.34-.04-2.03-.09-.5.02-1.05.07-1.56.08-.73-.09-1.44-.02-2.17.12-1.24.06-2.5.06-3.75,0-1.1.02-2.2,0-3.3-.01-1.02,0-2.04,0-3.05,0-.86,0-1.75.04-2.62.04-.72.1-1.46.08-2.2-.06-1.92-.05-3.83,0-5.75.03-.89.04-1.79.02-2.68-.03-1.27.35-2.47.76-3.62.42-1.18,1.17-2.24,2.2-3.04.01,0,.02-.03.04-.03.92-.27,1.01-.96.92-1.77-.04-.35-.01-.71,0-1.07.02-.68-.03-.79-.69-.69-.47.08-.82-.06-1.17-.3-.28-.19-.32-.03-.32.2,0,1.23-.04,2.47.06,3.7,0,.08,0,.16,0,.23-.02.16,0,.39-.23.39-.25,0-.18-.24-.19-.4-.04-1.6,0-3.19.03-4.79.01-.53-.04-1.05-.04-1.58,0-.15-.08-.39.18-.4.23-.01.19.2.21.35.05.4,0,.8-.05,1.2-.02.14-.06.3.09.38.16.08.21-.09.28-.17.19-.22.43-.29.71-.25.51.06.99.06,1.48-.2.25-.14.62-.08.94-.07.45.01.62-.15.59-.59-.02-.37-.03-.74-.04-1.11,0-.27.05-.51.29-.7.23-.18.29-.47.24-.72-.07-.36,0-.71,0-1.07,0-.5.32-.87.82-.93.4-.05.49-.29.52-.64.06-.63-.31-1.2-.27-1.83.02-.4-.06-.8.02-1.2.07-.32-.08-.56-.37-.68-.55-.22-.63-.71-.54-1.16.09-.46.03-.89-.03-1.33-.06-.49.49-1.21.98-1.19.85.04,1.7-.12,2.55-.1.83.02,1.13.27,1.14,1.09,0,.6.03,1.2.03,1.8,0,.34-.07.66-.48.75-.41.09-.37.44-.35.71.05.54.08,1.08.08,1.62,0,.21,0,.39-.09.58-.13.25-.2.53-.17.81.03.37.13.67.58.78.52.12.68.4.62.92-.09.67.07,1.3.35,1.9.2.43.18.88.19,1.32,0,.28.07.51.13.76.12.45.52.34.81.31.32-.03.55-.32.47-.63-.12-.52-.03-1.02-.02-1.53.01-.55-.21-.85-.76-.88-.3-.02-.5-.13-.63-.39-.05-.12.04-.17.11-.22.25-.19.49-.1.74.03.2.11.27.31.4.62Zm-8.76,59.19c.09-.14.17-.22.21-.31.49-1.09,1.22-1.85,2.48-1.97.1,0,.26-.07.28-.14.09-.45.5-.78.5-1.27,0-.8.02-1.6,0-2.39-.05-1.36.08-2.71.07-4.06,0-.72.03-1.45.02-2.17-.02-1-.05-2.01,0-3.01.04-.94.11-1.89.05-2.81-.07-1.1.15-2.18,0-3.27-.09-.6.1-1.2.06-1.8-.08-1.11-.05-2.23-.05-3.34,0-1.16.04-2.32.02-3.48-.02-2.16.09-4.32.05-6.48-.01-.8-.06-1.61,0-2.41.1-1.42-.04-2.85.05-4.27.07-1.06-.2-2.08-.64-3.06-.09-.21-.3-.35-.28-.62.05-.76-.08-1.52.06-2.27.07-.42-.1-.59-.49-.67-.97-.2-.97-.21-.94-1.21,0-.02,0-.03,0-.05,0-.36-.25-.54-.55-.58-.3-.05-.53.04-.65.43-.16.53-.04,1.05-.02,1.56.06,1.33-.02,2.65,0,3.97.01.81-.01,1.63-.04,2.44-.02.6-.02,1.24,0,1.87.04.95-.05,1.91-.04,2.87.02.89.09,1.8-.03,2.68-.14.97,0,1.93-.08,2.9-.07,1.03,0,2.08.02,3.13.02,1.77,0,3.54-.05,5.32-.04,1.54.02,3.09-.02,4.63-.02.71.12,1.41.03,2.12-.11.88-.02,1.76-.06,2.64-.04.83,0,1.67,0,2.51,0,1.16-.07,2.33-.1,3.5-.01.39.1.76.07,1.15-.13,1.57-.12,3.14-.07,4.72.02.64.1,1.28-.06,1.92-.1.42.02.85.18,1.31Zm-8.9-50.87c0-.41,0-.86,0-1.31,0-.11-.02-.22-.15-.26-.14-.04-.19.06-.25.16-.76,1.33-1.45,2.69-1.82,4.18-.29,1.17-.41,2.38-.5,3.58-.08,1.08-.06,2.19-.06,3.28,0,1.25,0,2.49,0,3.74,0,2.6-.06,5.19-.02,7.79.03,1.88-.07,3.77-.1,5.65-.01.87,0,1.75,0,2.62,0,.8-.07,1.61-.04,2.41.04,1.02-.09,2.03-.05,3.05.02.49.13,1,.06,1.46-.12.69-.03,1.36-.04,2.04-.05,1.82,0,3.65,0,5.47,0,.72-.09,1.45-.07,2.16.02.74-.02,1.48-.01,2.21.02,1.91-.05,3.82-.07,5.73-.01,1.07,0,2.15,0,3.22,0,.57-.02,1.15-.02,1.72,0,1.38.05,2.75.01,4.13-.05,1.81-.04,3.62-.02,5.42,0,.17-.03.38.23.37.21,0,.38-.07.41-.35.03-.37.06-.74.05-1.11,0-1.04,0-2.07,0-3.11,0-1.5-.02-3.01-.02-4.51,0-.99-.03-1.99.06-2.97.06-.7.02-1.39.02-2.08,0-.6-.18-1.21.36-1.69.05-.05.04-.17.06-.26.21-.92.06-1.85.12-2.78.05-.72.02-1.45.01-2.18,0-.78-.02-1.58.09-2.36.08-.53.13-1.09.07-1.61-.14-1.13-.03-2.25-.04-3.38,0-.41.04-.83.04-1.24,0-.9.08-1.79.07-2.68-.01-.97-.02-1.95-.02-2.93-.01-1.3.01-2.59,0-3.89,0-1.41-.06-2.82-.05-4.23,0-2.34.06-4.68.05-7.01,0-1.19-.04-2.38-.02-3.57.03-1.87,0-3.74.06-5.62.02-.93,0-1.85.05-2.78.05-.79.06-1.6.02-2.4-.05-.76-.07-1.52.02-2.27.02-.14.04-.35.25-.33.19.03.13.21.13.35.01,1.31.06,2.63.02,3.94-.05,1.78-.14,3.56-.08,5.34.03.96-.12,1.92-.07,2.87.07,1.27-.03,2.54.02,3.8.03.79-.03,1.58.02,2.37.07,1.02,0,2.04-.02,3.05-.03,1.53-.02,3.06,0,4.59,0,.63-.06,1.26-.06,1.88,0,.95,0,1.91,0,2.86,0,1.25,0,2.5.03,3.75.02,1.02-.21,2.03-.09,3.05.15,1.25-.15,2.49-.03,3.74.1,1.04-.09,2.09-.06,3.14.02.61.02,1.23.04,1.84.03,1.48-.07,2.96-.12,4.44-.01.3.05.6.38.56.28-.04.74.14.8-.45.13-1.25.05-2.5.11-3.75.05-1.06.02-2.13.08-3.19.06-1,.1-2.03.05-3.01-.06-1.22.02-2.43-.06-3.64-.06-.86.12-1.73.14-2.58.04-1.26.04-2.53.08-3.8.05-1.87-.16-3.73-.11-5.59.04-1.37.02-2.75-.02-4.12-.04-1.29.08-2.59.04-3.88-.04-1.22-.16-2.44-.08-3.66.02-.35.09-.7.08-1.06-.04-1.23-.03-2.47-.06-3.7,0-.39.09-.76.09-1.16-.03-1.58-.07-3.16-.03-4.73.02-.61.05-1.23.08-1.84.05-.95-.13-1.89-.03-2.87Zm1.6,52.13c0,.17,0,.25,0,.33.03.31.09.59.49.6.42.01.58-.16.58-.58.01-.99.09-1.98.09-2.97,0-1.76-.17-3.52-.03-5.27.16-2.01-.01-4.02.05-6.02.07-2.21.1-4.43.05-6.64-.05-1.95-.03-3.9.06-5.85.08-1.69-.03-3.38.02-5.07.03-1.34-.12-2.67.03-4.02.19-1.7,0-3.42.09-5.13.07-1.27.02-2.56,0-3.84-.02-1.25.08-2.51.06-3.76-.01-.9-.06-1.8-.03-2.69.04-1.08-.05-2.15,0-3.23.04-.79-.07-1.59,0-2.39.02-.17.03-.38-.11-.48-.18-.12-.32.08-.43.18-.78.68-1.5,1.41-2.1,2.26-.19.27-.42.48-.03.76.07.05.1.2.1.3,0,1.45,0,2.91-.03,4.36-.03,1.39-.14,2.78-.16,4.17-.02,1.94.05,3.87.03,5.81-.01,1.51-.24,3.02-.07,4.54.12,1.16-.03,2.31,0,3.46.03.99-.05,1.99.03,2.97.07.99-.02,1.97-.02,2.95,0,.85-.03,1.7.05,2.54.17,1.82-.04,3.64-.02,5.46.01,1.06-.09,2.13-.13,3.19-.07,1.96,0,3.92.03,5.89,0,.43.11.87.05,1.3-.17,1.38-.11,2.77-.17,4.16-.05,1,.07,2-.11,3-.04.19-.15.5.05.6.26.13.6.17.9.05.29-.12.44-.36.39-.67-.08-.51-.01-1.02,0-1.53.04-1.86.08-3.72.09-5.58,0-1.35-.04-2.69-.04-4.04,0-1.42.05-2.85.05-4.27,0-.79-.01-1.57.08-2.35.05-.41.08-.84.05-1.23-.11-1.33.03-2.66-.02-3.99-.04-.89.06-1.8-.01-2.69-.11-1.41-.1-2.81-.09-4.22,0-1.93.15-3.86.05-5.8-.07-1.4,0-2.81.04-4.22.04-1.36.04-2.71.03-4.07-.01-1.22.04-2.44,0-3.66-.02-.73.01-1.49-.01-2.21-.03-.84.04-1.69,0-2.53-.05-1.02.21-2.06.07-3.1-.02-.14-.1-.4.18-.39.2,0,.24.21.23.39-.07.87.02,1.74-.04,2.61-.11,1.59-.07,3.19-.07,4.78,0,2.46.08,4.92.02,7.38-.05,1.84-.19,3.69-.06,5.53.11,1.63-.04,3.25-.03,4.88,0,1.35-.02,2.71.03,4.07.09,2.35-.03,4.69-.03,7.04,0,.5-.11.98-.1,1.46.01.76.07,1.51.09,2.27.02.85-.14,1.68-.13,2.53.02,1.21.07,2.41.11,3.62.05,1.67-.09,3.34-.09,5.01,0,1.39-.02,2.78-.11,4.08Zm3.68-10.12c0,.38,0,.63,0,.88,0,.25-.02.5-.03.74-.02.63.17.81.8.77.51-.03,1.02-.1,1.53-.02.33.05.51-.09.53-.46.11-2,.05-3.99.06-5.99.01-1.65-.01-3.31.05-4.96.03-.66.09-1.34.07-1.99-.03-.86,0-1.73-.02-2.59-.01-.85.03-1.7.02-2.55-.02-1-.15-2.01-.08-3.01.09-1.29-.02-2.57.04-3.85.05-.96-.07-1.93,0-2.87.07-.84-.05-1.67.06-2.52.11-.78-.04-1.59-.01-2.39.04-1.32.05-2.64.03-3.96-.04-2.15.08-4.3.1-6.45,0-.17.03-.36-.17-.44-.22-.09-.39.02-.54.16-.46.39-.76.92-1,1.43-.71,1.49-1.13,3.06-1.1,4.74.02,1.11-.06,2.22-.06,3.33,0,1.51.05,3.02.04,4.53,0,1.23-.1,2.47-.12,3.7-.02,1.64.03,3.29-.04,4.93-.04.99,0,1.98,0,2.98-.01,1.81-.03,3.62-.05,5.43-.01.89,0,1.79-.02,2.68-.02,1.17,0,2.34-.02,3.51-.02,1.47-.02,2.93-.06,4.26Zm-8.8,47.41c-.23,0-.37,0-.51,0-.22,0-.29.15-.3.34-.01.23.15.24.31.25.94.03,1.87.23,2.82.25.35.01.75-.09,1.08.18.08.07.19.12.16.25-.04.13-.16.15-.26.15-.17,0-.34-.04-.51-.04-.91-.04-1.81-.04-2.72-.11-1.16-.1-2.32-.26-3.48-.39-.5-.06-1.03-.02-1.51-.17-.77-.23-1.57-.29-2.35-.44-.71-.14-1.47-.19-2.16-.35-1.56-.38-3.16-.56-4.7-1-.35-.1-.7-.26-1.08-.22-.1.01-.24-.06-.27.1-.02.12.06.23.16.25.26.07.47.24.72.3.99.24,1.99.44,2.98.66.21.05.41.15.63.17,1.05.08,2.09.22,3.1.52.44.13.9.24,1.36.28.77.07,1.53.09,2.29.27,1.18.27,2.41.2,3.6.36.22.03.46-.05.68,0,1.23.21,2.48.32,3.73.37.74.03,1.48-.03,2.21.04,1.05.1,2.1.11,3.14.13,1.11.02,2.23.08,3.33.12,1.57.06,3.14-.04,4.72.07,1.23.09,2.47,0,3.7-.05,1.64-.05,3.27-.12,4.91-.21.96-.05,1.93-.13,2.87-.08,1.67.09,3.28-.32,4.93-.34,1.08-.02,2.15-.28,3.22-.34,1.04-.06,2.08-.15,3.11-.3,1.3-.19,2.59-.41,3.87-.73,1.81-.44,3.64-.82,5.42-1.39,1.59-.51,3.08-1.19,4.39-2.24.11-.09.34-.17.2-.34-.12-.15-.27.04-.4.11-.46.27-.84.68-1.3.94-.54.3-1.13.56-1.74.71-1.11.28-2.17.7-3.28,1-.89.24-1.8.45-2.69.71-.98.29-2.03.29-3.03.53-1.07.26-2.18.32-3.26.57-.53.13-1.11.21-1.69.18-.44-.03-.88.1-1.33.15-.68.07-1.37.11-2.04.21-.53.08-1.05,0-1.57.04-.92.08-1.84.29-2.75.27-1.42-.03-2.83.06-4.24.08-.55,0-.93-.13-1.22-.57-.19-.28-.46-.42-.79-.42-.8,0-1.6,0-2.41,0-1.3,0-2.6.07-3.9,0-.11,0-.21-.04-.32-.07-.07-.03-.13-.08-.13-.17,0-.1.08-.14.15-.15.12-.02.25-.01.37-.02.94-.04,1.88-.04,2.83-.05,1.97-.03,3.93-.21,5.91-.21.81,0,1.62-.11,2.44-.11.85,0,1.71-.15,2.56-.22.71-.06,1.48.1,2.14-.35.03-.02.09,0,.13,0,.33.17.67.02,1,0,.95-.02,1.88-.21,2.83-.28,1.18-.09,2.37-.23,3.52-.47,1.63-.33,3.29-.46,4.92-.85,1.23-.29,2.47-.51,3.69-.86.63-.18,1.21-.51,1.82-.75.59-.24,1.15-.51,1.69-.84.32-.2.63-.43.94-.66.13-.09.15-.25.07-.37-.08-.12-.16,0-.22.05-.72.56-1.52.97-2.33,1.38-.58.29-1.21.37-1.78.62-.57.26-1.18.37-1.77.52-1.09.27-2.23.38-3.32.66-1.6.42-3.25.57-4.87.83-1.37.22-2.76.39-4.15.54-1.75.19-3.53.13-5.27.45-1.16.21-2.36,0-3.52.27-.61.14-1.26-.02-1.89.09-.36.06-.74.11-1.1.08-.62-.06-1.24-.03-1.85,0-.76.04-1.52.07-2.27.09-1.93.05-3.86.05-5.79,0-2.06-.06-4.13-.18-6.19-.33-1.32-.1-2.62-.32-3.94-.32-1.83,0-3.62-.37-5.43-.49-.79-.05-1.55-.27-2.33-.42-1.02-.2-2.1-.06-3.09-.49-.15-.07-.33-.06-.5-.08-.96-.14-1.93-.25-2.88-.42-1-.19-1.99-.44-2.99-.66-.1-.02-.24-.11-.27.04-.03.13.12.17.23.18.62.07,1.17.35,1.79.47,1.38.27,2.76.55,4.15.78.58.1,1.14.28,1.72.32.66.04,1.32.14,1.97.26.74.14,1.49.16,2.23.29,1.25.23,2.52.37,3.79.48,1,.09,2,.14,2.99.2.63.04,1.26.11,1.89.1.83,0,1.65.2,2.48.17.45-.02.91.13,1.37.21.1.02.23.07.2.21-.02.11-.14.11-.23.11-.29,0-.59,0-.89,0-1.33.02-2.65-.17-3.97-.28-.95-.08-1.91-.04-2.85-.16-.63-.08-1.27,0-1.8-.12Zm13.17,5.67c0,.91.02,1.82,0,2.74-.01.71-.09,1.41-.06,2.13.06,1.34.08,2.69-.1,4.02-.03.23.06.38.25.44.29.09.59.21.91.16,1.46-.25,2.92-.04,4.39-.02.38,0,.64-.17.65-.56.03-1.15.06-2.3.05-3.45,0-1.3-.03-2.6-.05-3.89-.02-1.08.04-2.16.05-3.25.01-.95.01-.95-.92-.96-1.52-.01-3.04-.03-4.55-.04-.5,0-.62.15-.62.65,0,.68,0,1.36,0,2.04Zm7.83-51.83c0,.2,0,.4,0,.61-.02.44.18.61.61.62.65.01,1.3,0,1.94-.04.41-.02.59-.2.6-.6.02-1.42.06-2.83.04-4.25,0-.68.07-1.36.07-2.03,0-.98-.12-1.96-.05-2.93.09-1.11-.02-2.22.05-3.33.02-.34.06-.68,0-1.02-.15-.92-.08-1.85-.03-2.77.04-.68.05-1.36.1-2.03.03-.48-.12-.58-.61-.57-.7.02-1.39.04-2.09.02-.36,0-.52.13-.51.48.02.51.08,1.02.03,1.52-.06.68-.08,1.36-.07,2.04.01,1.4.06,2.8,0,4.2-.04.91-.08,1.82-.09,2.73-.01,1.22.05,2.45.04,3.67-.02,1.22.02,2.45-.03,3.67Zm-11.76,36.1c0,.32,0,.92,0,1.53,0,.34.14.54.49.53.58-.02,1.17.04,1.75-.13.59-.18,1.22-.2,1.84-.19.68,0,1.35-.04,2.03-.05.79-.02,1.6-.06,2.35.19.82.27,1.66.28,2.5.32.35.02.54-.17.54-.49,0-1.35,0-2.7-.01-4.05,0-.3-.16-.46-.46-.45-.31.01-.62.04-.93.04-1.36,0-2.72.03-4.08-.02-1.14-.04-2.28.02-3.41-.18-.21-.04-.58-.02-.56.42.04,1.14-.09,2.29-.04,3.43,0,.17.11.53-.18.52-.22,0-.17-.34-.17-.56.03-.97.06-1.95.08-2.92.02-.85-.2-1.06-1.06-.99-.03,0-.06.03-.09.02-.49-.16-.52.17-.56.51-.08.74,0,1.49-.03,2.52Zm9.35-40.94c0-.91.06-1.82.04-2.74-.01-.57-.08-1.15-.03-1.72.1-1.05.03-2.1.06-3.15.02-.68.01-1.36,0-2.04-.02-1.11.1-2.21.02-3.32-.02-.21-.17-.46-.32-.28-.39.47-.76.22-1.17.12-.29-.07-.56.08-.52.41.07.65-.04,1.3,0,1.94.06,1.25,0,2.5,0,3.75-.01,2.43-.07,4.86-.08,7.28,0,1.73-.04,3.46-.06,5.19,0,.68.05,1.36-.02,2.03-.09.89.11,1.73.32,2.57.02.07.08.13.14.17.47.32,1.06.17,1.29-.35.14-.31.25-.63.28-.98.1-1.04.02-2.09.04-3.13.04-1.92.01-3.85.01-5.78Zm-9.76,30.73c-.09.27.05.71-.02,1.14-.02.15,0,.3.17.35.23.07.48.14.72.16,1,.05,2,.08,3,.12.69.03,1.09-.45.92-1.12-.06-.23-.15-.48-.09-.68.21-.69.05-1.39.04-2.07-.01-1.62.05-3.23.05-4.85,0-.24-.07-.44-.3-.44-.81,0-1.65-.36-2.43.18-.16.11-.44.13-.63.01-.23-.15-.49-.18-.74-.27-.55-.2-.59-.17-.63.43,0,.06,0,.12,0,.19.04.91.1,1.82.12,2.73.03,1.33-.08,2.66-.19,4.14Zm1.44,33.04s-.07,0-.1,0c0,.54,0,1.08,0,1.63,0,.56.2.75.77.7.29-.03.58-.03.88,0,.68.05.94-.22.94-.88,0-1,.02-2-.02-3-.07-1.96.06-3.92.08-5.88,0-.63.08-1.27.02-1.9-.03-.25-.14-.39-.39-.45-.59-.14-1.2-.1-1.8-.11-.3,0-.44.18-.41.44.1,1.14.07,2.28.08,3.43,0,.48-.11.97-.06,1.41.05.48-.02.95.01,1.42.06,1.06.02,2.13.02,3.19Zm7.73-26.24c.73.09,1.45-.07,2.18-.06.36,0,.55-.2.54-.56-.02-.7-.06-1.39-.1-2.09-.01-.23-.15-.44-.36-.41-.44.06-.86-.05-1.29-.02-1.23.08-2.46.19-3.69.16-1.13-.03-2.26-.07-3.39-.12-.59-.02-.77.15-.63.71.13.55,0,1.08,0,1.61,0,.41.16.61.49.64.65.05,1.3.09,1.95.12,1.44.06,2.87.08,4.31,0Zm4.07,17.2c-.07-.55-.3-.84-.76-.78-.4.05-.79.09-1.2.03-.28-.04-.4.09-.41.41-.03,1.1.08,2.19.02,3.29-.09,1.66-.03,3.33-.07,5-.02.97.06,1.94-.11,2.9-.06.32.17.43.41.53.42.19.86.03,1.29.04.66.02.85-.25.78-.9-.02-.15-.04-.3-.05-.46-.1-1.66.11-3.31.09-4.97-.02-1.69,0-3.38,0-5.08Zm-12.27,9.58c-.02-1.21.02-2.41.06-3.62.07-2.09,0-4.18.08-6.27.01-.29-.07-.49-.43-.53-.38-.04-.75-.14-1.15-.14-.6,0-.78.09-.75.68.07,1.54.01,3.08.07,4.62.05,1.36-.03,2.71-.09,4.06-.03.77-.08,1.54-.09,2.31,0,.49.16.64.63.63.41-.01.83-.04,1.24-.06.28-.01.43-.14.43-.43,0-.42,0-.84,0-1.26Zm-2.98-35.26c0,.6.02,1.21,0,1.81-.04,1.16-.04,1.16,1.08,1.25.02,0,.03,0,.05,0,.34.02.55-.07.55-.49,0-1.39.12-2.77.1-4.16-.02-1.33-.16-2.67-.02-4.01.11-1.05.04-2.1.05-3.15,0-.65.07-1.3.05-1.95-.01-.55-.32-.69-.73-.79-.79-.2-1.06.05-1.04.85.04,1.2.1,2.4.03,3.6-.08,1.45.05,2.9-.11,4.35-.1.89-.02,1.79-.02,2.69Zm.51,26.61c0-.48,0-.96,0-1.44,0-.31-.16-.5-.46-.55-.26-.04-.52-.06-.78-.06-.55,0-.73.14-.73.69,0,1.25-.02,2.5.04,3.75.05,1.06.01,2.12,0,3.19-.02,1.28-.05,2.56.06,3.84.02.26-.12.55.05.77.2.27.53.06.79.13.1.03.2.08.31.1.39.1.61-.08.64-.49.04-.54-.05-1.08,0-1.62.06-.91-.02-1.82.02-2.73.09-1.86.08-3.71.08-5.57Zm15,8.9c.01.19,0,.38.04.55.08.33-.23.82.3.95.35.09.74.05,1.11-.06.34-.1.53-.32.53-.68,0-1.82-.02-3.65.01-5.47.02-1-.08-2-.03-3.01.04-.83,0-1.66-.03-2.5,0-.25-.09-.56-.42-.49-.32.07-.65.06-.97.09-.41.04-.53.21-.48.61.12,1.07.05,2.15.09,3.23.05,1.36.04,2.72-.1,4.08-.09.9,0,1.79-.03,2.69Zm-5.5-38.96c0-.78,0-1.31,0-1.84,0-.35-.13-.51-.53-.53-.45-.02-.9.15-1.37-.04-.21-.09-.49.07-.55.37-.04.2-.1.39-.09.6.06,1.22,0,2.44.03,3.66.03,1.09-.03,2.18-.02,3.28,0,.35.06.59.46.68.41.09.68.37.64.84,0,.12,0,.24.14.25.16.01.14-.13.15-.23.01-.45.16-.8.64-.89.4-.08.5-.32.49-.71-.02-1.09-.02-2.19-.1-3.28-.06-.81.22-1.6.11-2.15Zm-13.66,34.45c.08.56.02,1.11,0,1.66-.03.98.07,1.97-.07,2.95-.12.85.17,1.18,1.02,1.24.08,0,.15.03.23.03.35.03.56-.16.56-.48.02-.88.05-1.76.03-2.63-.04-1.24-.1-2.47-.07-3.71.04-1.63.16-3.26.03-4.9-.03-.44-.22-.65-.65-.68-.19,0-.37-.03-.56-.04-.33-.02-.5.16-.51.47-.01.42,0,.84-.01,1.26,0,1.61,0,3.21,0,4.82Zm-23.97-10.61c.12-.36-.19-.65-.49-.92-.19-.17-.44-.29-.66-.42-.14-.09-.29-.2-.47-.07-.15.11-.19.27-.17.45.06.53.04,1.09.01,1.61-.08,1.45-.03,2.9-.06,4.35-.03,1.24.07,2.49.04,3.73-.02,1.02.5,1.69,1.29,2.2.34.22.5.14.51-.29.02-.69-.02-1.39-.02-2.08-.01-1.41,0-2.83.03-4.24.02-1.4-.1-2.8-.01-4.32Zm16.17-8.61c0-.69-.07-1.21-.01-1.74.03-.31-.15-.53-.45-.55-.3-.02-.38.23-.44.5-.08.39.05.77,0,1.16-.12,1.1-.03,2.19-.05,3.29-.01.75-.06,1.5.03,2.26.06.52.45.86.93.61.19-.1.3-.12.44.04.13.15.32.17.5.21.35.08.7.02,1.05.04.39.03.49-.11.49-.47,0-.83-.03-1.66-.06-2.49-.04-1.5-.01-3-.01-4.51,0-.33-.15-.55-.51-.49-.33.06-.65.04-.97-.02-.39-.07-.54.1-.53.49,0,.37-.06.75-.06,1.12-.02,1.07.03,2.14.02,3.21,0,.31.12.43.45.38.64-.1,1.06.28,1.38.75.26.39.1.78-.14,1.12-.35.5-.89.51-1.38.38-.38-.09-.57-.47-.69-.86-.19-.61.16-1.18.08-1.82-.11-.9-.16-1.85-.08-2.62Zm23.02-27.58c.04-1.05-.54-1.74-1.22-2.2-1.03-.7-2.15-.52-3.16.2-.79.56-.86,1.44-1.02,2.29-.17.96.21,1.62.99,2.11.39.25.85.24,1.28.34,1.88.45,3.16-1.23,3.13-2.75Zm-11.83,6.23c0-.25,0-.49,0-.74,0-.26,0-.53-.01-.79-.02-.43-.42-.79-.89-.76-.5.03-.31.47-.39.74-.01.04,0,.09,0,.14.02.88.02,1.75.06,2.63.04.94-.08,1.88-.05,2.81.03,1.22-.06,2.45-.1,3.66-.05,1.37.14,2.75-.16,4.11,0,.03,0,.06,0,.09.06.22.7.54,1,.49.37-.06.5-.29.48-.67-.04-.74-.15-1.48-.07-2.21.19-1.71.06-3.43.14-5.14.07-1.45.01-2.9-.01-4.35Zm33.4,48.65c-.3-.1-.63.18-.99.18-.48,0-.86.26-1.24.49-.36.23-.32.61.07.79.17.08.34.16.52.19,1.71.26,3.42.52,5.15.53.56,0,1.12.2,1.66.09,1.16-.24,2.35-.16,3.5-.46.75-.19,1.54-.11,2.27-.43.23-.1.44-.13.44-.48,0-.37-.2-.45-.45-.54-.89-.33-1.81-.48-2.76-.56-.64-.06-.74-.01-.8.62-.04.46-.27.75-.72.85-1.14.27-2.29.3-3.44.07-.58-.11-.94-.39-1.12-.95-.17-.55-.45-.69-.99-.53-.33.1-.66.16-1.09.13Zm-23.48-109.52s-.01,0-.02,0c0,.33,0,.65,0,.98,0,.49.23.71.72.69.31-.01.62-.08.92-.06.49.03.62-.27.57-.64-.08-.65.07-1.3.02-1.95,0-.13-.03-.33.16-.32.15,0,.12.19.13.31.01.69.02,1.38.02,2.07,0,.2,0,.41.24.42.25,0,.2-.21.21-.38.04-.65.09-1.3.09-1.95,0-.69-.12-.89-.81-.91-.84-.02-1.67.02-2.51,0-.9-.03-1.79,0-2.68.01-.64,0-.83.1-.84.73-.01.68.05,1.36,0,2.04-.02.28.09.61.55.59.42-.02.63-.15.63-.6,0-.59.02-1.17.05-1.76,0-.16-.12-.44.13-.46.14,0,.19.29.22.47.02.12.02.25,0,.37-.1.48,0,.96.02,1.43.01.22.1.42.34.43.26.02.32-.18.34-.41.05-.62.06-1.24.02-1.85-.01-.19,0-.37.07-.55.03-.08.08-.14.16-.14.09,0,.13.07.17.14.06.12.05.24.04.36-.05.66,0,1.33-.07,1.99-.03.28.03.62.42.58.34-.03.33-.34.32-.62,0-.7.01-1.39.03-2.09,0-.11.01-.29.18-.28.16,0,.16.16.17.29,0,.36,0,.71,0,1.07Zm-29.22,110.6c.6-.02,1.19-.09,1.8-.17,1.16-.17,2.34-.17,3.43-.68.2-.09.56.07.58-.25.03-.33-.35-.38-.56-.55-.04-.04-.11-.05-.17-.07-.94-.28-1.9-.38-2.87-.46-.33-.03-.55.08-.62.41-.07.33-.28.57-.56.7-.72.34-1.49.5-2.27.56-.59.04-1.2-.09-1.79-.15-.66-.07-1.1-.49-1.04-.99.07-.54-.14-.74-.68-.58-.56.16-1.15.19-1.72.23-.58.04-1.13.14-1.65.42-.15.08-.33.17-.32.36.01.19.16.31.34.34,1.13.24,2.22.62,3.39.67.44.02.89.07,1.33.09.29.01.6.12.91.12.83,0,1.66,0,2.49,0Zm65.39-9.57c0,.14,0,.28,0,.42,0,.14-.01.29.17.34.15.04.29-.02.36-.15.24-.4.53-.78.67-1.22.37-1.13.3-2.3.22-3.47-.04-.68,0-1.36,0-2.03.01-.54.09-1.08.05-1.61-.06-.85-.09-1.69.01-2.53.03-.27.07-.56-.09-.81-.08-.12-.14-.23-.33-.16-.52.19-.95.76-.96,1.3-.02,1.05-.04,2.1-.02,3.14,0,.39-.08.76-.05,1.16.06.63.06,1.27.03,1.9-.07,1.24-.12,2.48-.07,3.72Zm-47.66-41.12s-.07,0-.1,0c0-.37.01-.74,0-1.12-.01-.35-.21-.53-.57-.54-.4-.01-.38.31-.42.55-.03.19.05.4.03.6-.09,1.44.01,2.89-.07,4.34-.08,1.36-.07,2.72-.08,4.08-.01,1.49,0,2.97,0,4.46,0,.36.21.51.51.54.33.03.54-.1.53-.5-.03-.78-.03-1.57-.03-2.35,0-.6.16-1.2.1-1.81-.08-.85.04-1.69.02-2.54-.03-.82.07-1.64.08-2.45.02-1.08,0-2.16,0-3.24Zm9.61,28.26c0-.23-.01-.47,0-.7,0-.14-.04-.38.16-.37.19.01.15.25.13.39-.06.51-.03,1.02,0,1.53,0,.22.09.45.38.44.27,0,.37-.19.38-.44.02-.31.05-.62.04-.93-.03-1.14-.5-1.7-1.63-1.75-.86-.04-1.69-.15-2.53-.33-.84-.17-.83-.16-1.12.65-.08.21-.03.66-.52.47-.07-.03-.14.09-.14.16.02.5-.21,1-.02,1.5.1.28.69.54,1.06.49.39-.05.33-.35.38-.63.11-.54-.03-1.12.22-1.64.05-.1.06-.29.22-.24.16.05.08.2.05.32-.11.59-.18,1.19-.13,1.8.01.17-.02.38.23.37.23,0,.24-.19.23-.38-.04-.58.07-1.14.12-1.71.01-.16.07-.35.25-.33.17.02.13.22.11.36-.04.46-.13.92-.12,1.39.01.77.19.95.96.96,1.29,0,1.38-.09,1.3-1.39Zm-2.74-29.45c.12,0,.25.01.37.03.11.01.23.05.29-.08.05-.12-.06-.2-.15-.26-.31-.25-.32-.55-.15-.87.06-.12.2-.29,0-.34-.27-.07-.44-.28-.7-.35-.65-.19-1.32-.09-1.97-.11-1.4-.04-2.8-.16-4.21-.07-.96.07-1.93-.05-2.9.02-.15.01-.38-.1-.42.16-.05.26.17.39.35.42.42.07.8.22,1.2.33,1.24.37,2.55.39,3.82.62,1.47.26,2.95.49,4.46.52Zm-10.34,40.56c-.02,1.05,0,2.1-.04,3.15-.02.67.03,1.35-.02,2.01-.05.8,0,1.6.04,2.4.02.3.28.38.52.43.17.03.38.06.41-.18.03-.31.17-.59.17-.91,0-1.91,0-3.81.01-5.72,0-1.7,0-3.41,0-5.11,0-.33-.12-.49-.45-.51-.44-.03-.62.11-.63.64-.02,1.26,0,2.53,0,3.79Zm36.2,12.4c.23.64,0,1.3.17,1.94.17.67.22.75.94.82.39.03.61-.17.49-.53-.14-.43-.07-.86-.08-1.29,0-.17.05-.38.25-.39.18,0,.22.2.25.34.09.47.1.95.11,1.43,0,.38.25.65.58.64.44-.01.3-.36.32-.59.03-.4-.15-.8-.04-1.2.04-.15.05-.34.25-.34.16,0,.22.16.22.31,0,.49.21.97.08,1.47-.09.34.09.58.42.57.72-.01.76,0,.73-.5-.02-.5.03-.99.04-1.48,0-.11,0-.23.13-.27.15-.05.22.06.29.17.21.35.1.73.09,1.08-.03.88.06.98.9,1.04.43.03.54-.16.54-.49,0-.51,0-1.02-.04-1.53-.01-.22-.11-.44-.36-.49-.61-.11-1.25-.15-1.86-.16-.76,0-1.51-.13-2.26-.14-.73-.01-1.37-.43-2.14-.42Zm-15.58-113.44c-.22,0-.43,0-.65,0-.43-.02-.6.27-.61.61-.01.72.03,1.44.06,2.16,0,.22-.02.49.3.55.28.06.48-.03.6-.3.03-.07.08-.14.17-.11.07.02.07.09.07.15-.03.36.24.41.46.36.5-.11.98.03,1.48,0,.45-.03.56-.22.6-.59.09-.85-.02-1.69-.03-2.54,0-.2-.05-.41-.36-.35-.69.15-1.38.07-2.08.05Zm10.05,87.9s.05,0,.05,0c.7-.9.76-.91,1.74-.36.22.13.34.07.39-.19.07-.39-.11-.78-.04-1.16.21-1.2-.04-2.4.06-3.6.02-.24-.08-.45-.35-.47-.49-.03-.98-.15-1.48-.08-.2.03-.32.1-.34.3-.03.28-.09.56-.07.83.08,1.39.07,2.77-.02,4.16-.01.19-.04.4.07.57Zm-31.5,10.39s.01,0,.02,0c0-.5-.01-.99,0-1.49,0-.3-.16-.39-.4-.38-.33.01-.5.19-.53.53-.04.49-.06,1.02,0,1.47.12.72,0,1.42,0,2.12,0,1.76-.02,3.53,0,5.29,0,.83-.01,1.67,0,2.5,0,.29.13.55.44.57.3.02.43-.23.45-.5.05-.62.17-1.25.08-1.85-.17-1.15.04-2.3-.03-3.45-.1-1.6-.02-3.21-.02-4.82Zm10.64-5.01c-1.02-.5-2.15-.29-3.23-.45-1.3-.19-2.64-.11-3.96-.23-.84-.08-1.69-.14-2.53-.2-.77-.05-1.55-.06-2.31-.16-.65-.09-1.31-.13-1.97-.22-.77-.11-1.56-.02-2.32-.26-.79-.25-1.63-.26-2.44-.41-.88-.17-1.73-.43-2.63-.51-.78-.07-1.53-.3-2.3-.44-.73-.14-1.48-.23-2.19-.48-.37-.13-.78-.19-1.17-.29-.71-.18-1.46-.17-2.12-.54-.36-.2-.73-.45-1.18-.48-.02.22.12.35.24.4.46.21.9.5,1.41.57.98.13,1.92.45,2.87.7,1.19.31,2.39.59,3.6.76,1.27.18,2.51.54,3.79.68.9.09,1.78.36,2.69.47,1.36.17,2.73.22,4.09.41,1.16.17,2.33.21,3.49.35.89.1,1.79-.09,2.67.16.2.06.4.14.63.11.83-.12,1.66.12,2.49,0,.16-.02.33.07.5.08.63.04,1.27.12,1.87-.01Zm-12.44,4.27c-.03-.34.04-.68-.06-1.02-.04-.14-.06-.28-.24-.29-.16,0-.32.03-.42.16-.1.13-.09.29-.09.45,0,2.27,0,4.55-.03,6.82,0,.45.08.89.03,1.34-.11,1-.11,2.01-.02,3.02.03.3.21.58.49.58.3,0,.45-.23.4-.6-.05-.38-.05-.78-.03-1.15.1-1.47,0-2.94.07-4.41.06-1.64-.15-3.28-.09-4.92Zm23.1-99.94c0,.39,0,.77,0,1.16-.01.42.14.62.56.59.33-.02.61-.09.63-.56.05-1.07-.1-2.13-.03-3.2.09-1.34-.13-2.68-.04-4.03.02-.32,0-.65,0-.98,0-.35-.23-.5-.53-.54-.31-.04-.49.12-.53.45-.03.21-.1.41-.08.64.05.74.13,1.48.08,2.21-.09,1.42-.06,2.84-.07,4.26Zm3.93,110.1c-.03-.55.02-1.09,0-1.64-.04-1.02,0-2.04-.01-3.06-.03-1.46.03-2.91.04-4.37,0-.46.08-.92-.09-1.37-.14-.36-.35-.34-.62-.17-.21.13-.17.34-.17.54.04,1.01.15,2.03.08,3.03-.07.89-.07,1.78-.07,2.67,0,1.72.11,3.45-.04,5.17,0,.1.03.21.06.32.06.22.17.38.43.31.21-.05.43-.1.41-.41-.02-.34,0-.68,0-1.02Zm-22.38-47.05s0,0,0,0c0-.09-.01-.19,0-.28.05-.26.02-.51-.26-.55-.32-.05-.33.25-.39.47-.15.61-.09,1.24-.07,1.84.04,1.54-.03,3.09,0,4.63.03,1.43.06,2.86-.1,4.29-.11.94.14,1.88.02,2.82-.04.32.27.3.45.36.21.06.25-.14.27-.29.03-.21.07-.43.06-.65-.1-2.42-.09-4.84,0-7.27.07-1.79.01-3.59.01-5.38Zm-17.85,50.47c.25-.02.42-.05.59-.04.42.03.55-.16.5-.57-.04-.35-.06-.71-.04-1.07.04-.53-.21-1.14.41-1.52.07-.04.09-.16.03-.25-.06-.09-.17-.1-.25-.06-.58.25-1.19.12-1.79.15-.33.02-.42.12-.35.42.17.72.03,1.45.14,2.17.02.13.03.33-.14.35-.2.02-.24-.2-.24-.34,0-.76-.16-1.51-.04-2.28.03-.2.15-.5-.22-.47-.25.02-.59-.02-.6.45-.02.73.05,1.45.1,2.17.03.34.04.77.53.79.48.01.95.21,1.35.09Zm32.63-18.62s0,.02,0,.02c.08,0,.16,0,.23,0,.46,0,.72-.24.66-.73-.05-.39-.4-.12-.61-.19-.1-.03-.24.03-.36.05-.45.08-.91.21-1.37.24-1.35.09-2.71.07-4.06-.09-.83-.09-1.67-.15-2.49-.3-.56-.1-1.1-.23-1.22-.94-.05-.29-.35-.32-.57-.25-.29.09-.63.16-.61.62.02.34.22.4.46.39.42-.01.63.51,1.08.41.05-.01.06.09.06.15-.01.38.27.46.55.49.24.02.51-.07.74,0,.91.27,1.86.15,2.78.3.39.07.77-.12,1.16-.05.58.1,1.17.05,1.76.01.6-.04,1.2-.1,1.81-.15Zm-15.92-30.65c-.09-.34-.06-.86.03-1.38.04-.24.02-.5-.09-.73-.07-.15-.15-.29-.33-.28-.22.02-.17.22-.2.36-.17.79.05,1.57-.03,2.36-.05.5,0,1.01-.01,1.52-.01.71.06,1.43,0,2.13-.08,1.01.02,2.02-.06,3.04-.07.87-.03,1.78,0,2.67.02.6-.04,1.2-.05,1.81,0,.29.12.56.43.56.33,0,.21-.31.21-.5,0-.59-.04-1.18,0-1.76.09-1.35,0-2.7.05-4.04.06-1.86.04-3.71.02-5.75Zm42.87,48.52s.02,0,.04,0c0-.36,0-.71,0-1.07-.02-.53.42-.41.7-.47.34-.07.34.22.37.45.08.75-.08,1.5.01,2.25.02.14-.1.34.14.36.24.01.18-.21.18-.35,0-.82,0-1.64-.09-2.45-.05-.54-.15-.66-.69-.54-.93.2-1.86.26-2.8.24-.27,0-.44.11-.45.41-.03.76.03,1.51.08,2.26.01.16-.04.39.22.38.26-.01.29-.24.29-.45,0-.66-.07-1.32.02-1.98.02-.12-.05-.34.14-.33.16,0,.12.22.14.35.09.68,0,1.36.02,2.04,0,.53.14.68.74.74.58.05.91-.13.96-.61.04-.41,0-.83,0-1.25Zm-22.25-54.31s0,0-.01,0c0-.11,0-.22.03-.32.04-.22-.14-.63.16-.63.31,0,.12.41.15.63.08.6-.15,1.19-.02,1.8.07.3.25.39.5.35.26-.04.35-.24.31-.48-.03-.22-.06-.43-.02-.65.13-.8.01-1.6.03-2.41,0-.31-.21-.5-.44-.36-.54.34-1.15.44-1.72.66-.77.3-1.23.64-1.07,1.55.07.4-.01.83-.02,1.25,0,.16.05.32.21.39.14.06.27-.03.39-.12.15-.1.2-.25.23-.43.09-.55-.03-1.11.11-1.66.03-.13,0-.32.19-.31.2,0,.15.22.15.34,0,.54,0,1.09-.08,1.62-.05.36.07.5.37.56.33.06.39-.2.42-.43.06-.44.08-.89.12-1.34Zm-4.85-57.52c0-.2,0-.4,0-.6,0-.11.05-.23.19-.22.13,0,.18.12.19.23.02.32.03.65.03.97,0,.25.11.44.36.46.25.02.37-.14.42-.4.07-.4.04-.8.02-1.2,0-.3-.2-.46-.51-.5-1.28-.18-2.55.03-3.83.1-.36.02-.54.29-.57.64-.02.31,0,.62,0,.93,0,.17.02.35.21.35.24,0,.19-.19.15-.34-.03-.11.01-.19.09-.25.23-.19.28-.43.24-.71-.01-.12.01-.27.18-.26.15,0,.18.15.19.28,0,.26.03.53,0,.79-.05.51.11.68.62.59.49-.08.99-.04,1.47,0,.4.04.51-.1.53-.44,0-.14,0-.28,0-.42Zm13.71,84.69s-.02,0-.03,0c-.01-.26-.01-.53-.04-.79-.03-.35-.25-.45-.58-.45-.32,0-.39.15-.45.45-.15.86.04,1.72-.05,2.59-.09.84.07,1.69-.02,2.54-.06.57-.07,1.17.05,1.75.09.41.42.37.69.41.3.04.34-.2.36-.43.08-1.18-.05-2.37.05-3.55.07-.83.01-1.67.01-2.51Zm19.73,14.46c0,2.21-.19,4.12-.09,6.03.01.25-.22.72.27.75.45.03.37-.44.41-.71.08-.59.14-1.17.07-1.78-.08-.66.05-1.35.05-2.03-.02-1.4.04-2.8-.05-4.2-.05-.85,0-1.74.07-2.61.02-.24-.06-.37-.26-.41-.24-.05-.32.1-.37.31-.11.53-.05,1.07-.06,1.61-.03,1.11.07,2.22-.04,3.04Zm-71.25-4.37c.01-.28.04-.56-.15-.8-.1-.13-.22-.23-.4-.14-.14.07-.21.19-.17.35.15.6-.04,1.2.04,1.8.06.41.03.84,0,1.25-.1,1.32-.09,2.65-.11,3.98-.02,1.09.05,2.19.06,3.28,0,.29-.11.57-.04.87.05.21.16.33.39.31.2-.02.29-.12.3-.34.01-.54.05-1.08.08-1.62.07-1.28-.06-2.55-.05-3.83.01-1.7-.06-3.4.07-5.1Zm41.64-12.17s-.17.03-.29.05c-.63.12-.59.12-.58.75.03,1.2.12,2.4-.05,3.59-.06.39.29.72.69.67.17-.02.34-.06.51-.06.31-.01.43-.17.45-.47.07-.91.14-1.81.05-2.73-.04-.34-.06-.68-.02-1.02.08-.69.03-.77-.74-.79Zm10.13-4.26c-.01.22,0,.44-.04.65-.06.25-.19.46-.5.46-.33,0-.35-.23-.35-.48,0-.23-.01-.47-.04-.7-.02-.16-.13-.26-.29-.24-.17.02-.15.17-.15.29,0,.21.03.43.03.64,0,.6-.19.82-.78.98-.21.06-.41.1-.58.28-.17.17-.33.1-.35-.13-.02-.18-.06-.36,0-.55.12-.35,0-.7-.06-1.05-.03-.14-.07-.3-.25-.28-.21.01-.19.2-.23.35-.05.22.06.42.08.63.06.59-.12,1.17.03,1.76.04.16.05.32.26.33.21,0,.32-.14.34-.32.08-.78.74-.9,1.27-.99,1-.17,2.01-.36,3.04-.28.67.06.78-.12.76-.79-.02-.6-.09-1.2-.05-1.8.02-.28-.21-.44-.45-.31-.32.18-.67.32-.6.82.04.3-.03.61-.07.92-.02.17-.06.37-.28.37-.23,0-.24-.19-.25-.37,0-.22,0-.44-.02-.65-.01-.16-.06-.34-.25-.34-.22,0-.21.19-.22.34,0,.15,0,.31,0,.47Zm-5.1,30.97c-.18.27-.1.52-.04.78.05.2.15.37.37.34.19-.03.31-.2.28-.42-.11-.92.05-1.85.03-2.77-.07-2.81.04-5.62-.14-8.42-.01-.23-.09-.39-.3-.39-.23,0-.23.21-.21.39.15,1.39.01,2.77,0,4.16-.02,2.12,0,4.23,0,6.35Zm-28.35-26.67c.32.08.67-.14,1.06-.14.27,0,.4-.12.26-.41-.07-.13-.13-.3.01-.43.06-.05.14-.07.22-.02.17.11.12.27.1.42-.02.16,0,.28.21.27.28-.02.52-.36.47-.69-.05-.32-.18-.52-.56-.37-.15.06-.34.05-.5.07-.28.05-.52.1-.4.5.05.17.02.42-.21.44-.16.01-.3-.19-.29-.36.03-.49-.29-.44-.59-.39-.65.12-1.29.09-1.94.06-.82-.04-1.64-.12-2.45-.25-.27-.05-.55.02-.6.37-.04.31.16.51.4.61.24.1.5.16.76.2,1.33.18,2.66.16,4.06.12Zm36.52,10.96l.02.14c.09,0,.18.03.27.03,1.25.04,2.44-.38,3.68-.48.93-.07,1.86-.25,2.78-.44.35-.07.69,0,1.04-.13.57-.21,1.2-.15,1.78-.4.44-.19.96-.17,1.44-.27,1.12-.22,2.2-.61,3.28-.96.86-.28,1.65-.68,2.38-1.22.26-.19.35-.47.41-.76.03-.13,0-.27-.14-.31-.12-.03-.18.1-.23.19-.06.11-.04.24-.14.33-.8.71-1.74,1.23-2.75,1.53-.73.22-1.48.43-2.22.61-.95.23-1.92.4-2.87.63-.78.19-1.59.16-2.37.38-.53.15-1.09.39-1.62.34-.83-.08-1.55.31-2.37.3-.79,0-1.54.48-2.37.47Zm-26.39-9.17c.05-.51-.05-1.03-.02-1.53.04-.52-.32-.47-.57-.53-.28-.06-.65-.09-.74.33-.06.26-.14.55-.11.81.13,1.04.11,2.08.06,3.12-.03.51.25.85.69.85.57,0,.69-.14.69-.78,0-.76,0-1.51,0-2.27Zm42.25,11.05s.02,0,.03,0c0-.05.02-.1,0-.14-.08-.2.02-.53-.33-.52-.33,0-.25.29-.26.5-.07,1.1.13,2.19.03,3.29-.07.8,0,1.61-.03,2.41-.03,1-.16,2-.05,3.01.03.29.06.6-.02.91-.13.49.09,1-.01,1.5-.02.08,0,.2.12.22.13.03.19-.07.25-.17.17-.29.24-.6.26-.93.05-.89.04-1.78.03-2.68-.02-2.47,0-4.93,0-7.4Zm-20.13-3.9c-.4-.04-.7.39-.56.73.17.42.49.62.94.64.38.02.76.07,1.13.11.57.07,1.26.38,1.7-.37.11-.19.22-.1.28.08.06.19.23.18.39.16.16-.02.23-.1.26-.27.06-.37.33-.48.6-.23.23.22.29.22.37-.1.05-.19.19-.19.29,0,.08.16.18.26.28.04.11-.24-.03-.46-.19-.64-.13-.15-.24-.27-.51-.18-.92.29-1.86.44-2.83.36-.74-.06-1.48-.12-2.15-.35Zm-19.23-37.63c0-.06,0-.12,0-.19,0-.47-.16-.65-.59-.63-.43.01-.42.3-.43.62,0,1.71-.03,3.42-.05,5.14,0,.49.4.47.69.51.32.05.36-.23.37-.47.01-.83,0-1.66.03-2.48.03-.83,0-1.67-.01-2.5Zm23.81,28.46c-.02-.31,0-.69-.53-.6-1.57.25-3.1-.08-4.64-.31-.17-.03-.38-.17-.51.04-.12.19-.12.4,0,.61.32.56.91.61,1.42.7,1.15.2,2.33.02,3.49.12.51.04.79-.18.76-.56Zm-20.87,33.64c.82-.05.84-.07.8-.85,0-.15.01-.31.01-.46.01-.95.03-1.91.04-2.86,0-.23-.12-.37-.38-.36-.14,0-.28-.01-.41-.05-.34-.09-.47.09-.49.37-.02.27.04.56,0,.83-.14.95,0,1.9-.1,2.85-.04.4.11.64.54.54Zm-17.5-16.87s-.04,0-.05,0c0-.4,0-.81,0-1.21,0-.19-.07-.4-.32-.36-.22.03-.2.22-.19.4.03.57.08,1.14.05,1.7-.03.67.02,1.35-.01,2.02-.03.57.06,1.15,0,1.71-.07.67-.16,1.36-.08,2.01.15,1.23.06,2.46.08,3.68,0,.2-.19.56.17.56.33,0,.15-.4.25-.61,0-.01,0-.03,0-.05-.15-1-.06-2.01.02-3.01.08-1.04.01-2.07.07-3.11.07-1.25.02-2.5.02-3.75Zm16.31-11.17s0-.08,0-.12c-.67-.03-1.32.12-1.97.22-.16.03-.38.06-.39.26,0,.21.23.25.38.28.51.11,1.03.24,1.55.26.39,0,.88.22,1.16-.3.07-.12.22-.1.34-.08.46.09.92.02,1.37,0,.15,0,.29-.02.3.19,0,.31.23.33.46.32.62-.03,1.21-.21,1.8-.37.12-.03.18-.12.19-.24.01-.16-.1-.21-.23-.24-.68-.15-1.35-.24-2.06-.2-.97.05-1.94.01-2.91.01Zm9.79-3.41c-.11.64,0,1.47.02,2.3,0,.24-.03.49.22.61.25.12.52.1.76-.04.25-.15.28-.39.22-.65-.02-.09-.05-.18-.04-.27.07-1.19-.1-2.37,0-3.56.02-.27-.05-.5-.39-.51-.48-.01-.81.19-.76.54.07.47-.02.93-.02,1.59Zm4.77,3.58c.55-.09,1.1-.17,1.64-.27.21-.04.4-.18.35-.42-.04-.22-.26-.18-.43-.16-.44.05-.92.05-1.32.19-1.21.39-2.46.39-3.69.52-1.43.15-2.88.23-4.33.27-.14,0-.36-.04-.37.17-.01.2.14.34.34.38.14.02.28.02.42.01.97-.04,1.93-.06,2.89-.22.52-.09,1.04,0,1.57-.11.96-.21,1.97-.17,2.94-.36Zm-10.38-90.21c.27.12.54.12.79.06.25-.06.42-.2.4-.49-.02-.29-.04-.58-.05-.87-.01-.34-.28-.53-.62-.45-.48.11-.95,0-1.42-.04-.29-.02-.47.05-.37.39.02.07.05.15.05.23,0,.17-.02.38-.25.37-.22,0-.19-.21-.19-.36,0-.44-.29-.66-.67-.48-.35.17-.35.55-.29.81.08.33-.16.84.42.96.17.03.34.04.51.04.19,0,.37-.04.55-.06.8-.08,1.08-.42,1.02-1.22-.01-.14-.06-.31.12-.35.17-.04.22.14.26.27.14.44-.06.81-.26,1.2Zm-14.82,90.07c1.07.08,1.82.17,2.56.35,1.27.31,2.6.14,3.87.46.16.04.4,0,.39-.28-.01-.22-.14-.3-.37-.32-1.18-.12-2.37-.22-3.54-.4-1.57-.24-3.12-.55-4.68-.85-.21-.04-.43-.12-.51.12-.07.22.12.35.31.45.71.39,1.53.3,1.97.47Zm7.44-33.89h.08c0-.16,0-.31-.03-.46-.04-.31-.13-.62-.52-.57-.37.05-.33.37-.33.66-.01,1.16-.1,2.31-.07,3.47.01.54-.07,1.07-.07,1.61,0,.33.22.44.53.44.26,0,.41-.1.41-.38,0-1.59,0-3.18,0-4.77Zm-9.84,38.06c0-.42-.36-.73-.75-.57-.54.21-1.13.22-1.67.24-1.24.06-2.5.02-3.69-.44-.29-.11-.46.03-.59.21-.15.2-.07.43.1.59.23.22.52.31.84.32.45,0,.89.08,1.33.14.43.06.95.27,1.32-.23.08-.11.21-.07.27.04.28.5.48.28.71-.05.15-.2.36-.29.55.02.2.33.36.26.5-.07.09-.21.24-.56.41-.03.07.21.26.19.43.17.2-.03.25-.16.23-.32Zm9.69-10.29c.71.06.82-.04.81-.66,0-.49-.06-.99.05-1.48.06-.25-.07-.45-.27-.6-.26-.2-.55-.25-.87-.26-.64-.02-.75.07-.7.7.05.6.07,1.19-.05,1.79-.07.34.04.58.46.54.21-.02.43-.03.56-.03Zm18.7,27.51s0,.09,0,.14c.02.24-.11.65.21.65.33,0,.22-.42.23-.66.01-1.07,0-2.15,0-3.22,0-.67.09-1.34.04-2.01-.04-.54-.11-1.08-.06-1.61.13-1.3-.12-2.59,0-3.89.01-.13-.02-.4-.23-.4-.19,0-.22.23-.24.4,0,.03,0,.06,0,.09-.04,2.04.12,4.09.06,6.13-.04,1.45.03,2.91,0,4.37Zm-6.01-29.71c.01-.83,0-.86-.73-.88-.14,0-.27.05-.41.05-.28,0-.37.12-.42.41-.1.59-.08,1.19-.11,1.78-.04.85.06.99.92.96.08,0,.15-.02.23-.03.49-.07.62-.21.57-.71-.06-.57-.14-1.13-.05-1.59Zm-27.57,28.09c0,.45,0,1.02,0,1.6,0,.1,0,.2.13.2.09,0,.14-.07.15-.15.05-.33.21-.64.13-1-.09-.39-.08-.8-.06-1.2.08-1.57.08-3.15.06-4.73,0-.83.02-1.66-.03-2.5-.04-.64.07-1.3.03-1.95-.01-.19.02-.45-.2-.45-.2,0-.24.25-.23.44.01.79.05,1.57.05,2.36,0,.7,0,1.4,0,2.09,0,.82-.09,1.67-.12,2.49-.03.89.02,1.79.09,2.81Zm11.67-24.15c-.05-.31.05-.62.02-.93-.03-.33-.25-.44-.55-.44-.18,0-.4-.05-.41.24-.03.79-.05,1.57-.09,2.36-.02.54.11,1.09-.1,1.64-.09.23.01.5.24.66.24.17.51.1.76.04.13-.03.17-.15.15-.3-.13-1.09.11-2.17-.03-3.26Zm-5.34-3.12c.12-.17.03-.3-.05-.4-.22-.3-.31-.64-.32-1,0-.11.02-.25-.13-.26-.13,0-.12.15-.16.25-.08.23-.14.55-.45.49-.31-.06-.4-.35-.39-.66,0-.28.01-.56.01-.84,0-.14,0-.32-.19-.31-.19.01-.09.19-.1.3-.03.32.08.65-.04.97-.05.15-.14.3-.32.29-.18-.01-.28-.18-.28-.33,0-.29-.11-.57-.02-.87.06-.2.09-.43-.04-.63-.06-.1-.14-.17-.27-.15-.13.02-.2.12-.18.23.06.36-.12.7-.03,1.06.03.14.04.33-.13.34-.21.01-.21-.2-.2-.35.04-.37,0-.74.08-1.11.07-.3-.24-.72-.51-.71-.35.02-.28.3-.33.54-.09.45-.02.89-.04,1.33-.02.59.24.89.83.88,1.17-.02,2.34-.02,3.23.93Zm21.07-27.69s0,0,0-.01c.14,0,.28,0,.42,0,1.12.05,1.21-.05,1.15-1.2-.02-.32-.16-.44-.43-.38-.71.17-1.41.01-2.12,0-.23,0-.52,0-.57.29-.07.41-.32.84.03,1.24.07.08.17.04.27.04.42,0,.83,0,1.25,0Zm-14.35,5.8c0,.09,0,.19,0,.28,0,.22.12.34.34.36.21.01.32-.13.34-.3.05-.44.13-.9.1-1.34-.06-.71.02-1.42.02-2.12,0-.7.11-1.39.05-2.09-.02-.25-.12-.44-.38-.42-.24.01-.4.2-.42.43-.05.66-.13,1.33-.08,1.98.08,1.08.03,2.15.04,3.23Zm-8.45,29.23c0-1.54,0-2.83,0-4.13,0-.18.02-.43-.23-.43-.19,0-.29.21-.29.42-.03.63-.07,1.26-.07,1.89,0,1.2.06,2.41-.02,3.61-.04.51.02,1.02.04,1.53,0,.15.08.28.24.3.18.03.23-.13.28-.26.04-.1.04-.21.05-.32.1-.96-.04-1.91,0-2.63Zm15.73-82.45c-.25,0-.4,0-.56,0-.22.01-.46.03-.49.32-.04.31,0,.6.33.75.14.06.3.07.45.11.33.09.72-.07.99.02.67.23,1.29-.04,1.93-.03.4,0,.45-.34.46-.63.02-.32-.2-.41-.49-.41-.9,0-1.8-.19-2.62-.13Zm1.45,107.43s.02,0,.03,0c-.04-.32-.05-.65-.11-.96-.05-.25-.19-.46-.51-.41-.31.04-.53.14-.51.52.02.37,0,.74,0,1.11-.03.86.11,1.72,0,2.58-.04.32.18.35.41.36.3,0,.55-.02.57-.43.03-.92.09-1.84.13-2.76Zm6.55-18.28c1.3.13,2.58-.16,3.88-.12.76.02,1.53-.1,2.3-.13.85-.03,1.7.01,2.53-.2.49-.12.98-.09,1.47-.13.11,0,.31.02.3-.14,0-.16-.18-.18-.33-.17-.08,0-.15.03-.23.04-.46.05-.93.18-1.38.14-.78-.08-1.53.04-2.3.08-.93.05-1.85.19-2.78.19-1.01,0-2.03.06-3.04.16-1.1.12-2.21.06-3.31.19-.23.03-.62-.17-.64.12-.01.25.41.14.63.15.97.02,1.95-.06,2.9-.18Zm-7.55-85.12c0,.26-.01.38,0,.51.05.45.29.65.73.65.4,0,.5-.24.58-.58.12-.54.04-1.08.1-1.62.09-.86-.13-1.1-.99-1.08-.43.01-.61.2-.53.6.11.55-.03,1.11.11,1.52Zm14.79,89.53c-.06-.09.05-.22.01-.34-.04-.12,0-.35-.17-.34-.21.02-.09.23-.09.34.12,1.63-.07,3.26-.05,4.9.03,1.82,0,3.64,0,5.45,0,.31-.01.62-.01.93,0,.1.05.19.16.19.12,0,.16-.09.17-.19.04-.6.14-1.21.1-1.8-.07-1.24-.08-2.48,0-3.72.04-.66.18-1.32.1-1.98-.14-1.14-.1-2.28-.21-3.45Zm-29.62-10.78c-.16.02-.37-.12-.45.11-.09.26.2.26.33.36.07.06.17.08.26.09.69.08,1.35.27,2.03.37,1.33.2,2.66.37,3.99.5.46.04.92.07,1.37.17.21.05.51-.01.53-.31.02-.34-.27-.28-.47-.26-.41.04-.8-.02-1.2-.09-.56-.09-1.12-.21-1.69-.23-.53-.01-1.05-.06-1.55-.17-1.04-.22-2.13-.15-3.15-.55Zm31.93-26.77c-.65-.03-.75.06-.75.7,0,.52.02,1.04,0,1.56-.02.53.16.69.66.53.24-.08.42-.22.62-.39.39-.35.35-.79.41-1.23.11-.77-.17-1.13-.93-1.17Zm-23.28-10.35s0,.03,0,.05c-.12-.01-.25-.03-.37-.04-.52-.03-.95.39-.92.99.03.5.44.4.78.4.31,0,.62.05.92.07.34.02.68.06,1.02,0,.36-.07.52-.38.46-.97-.03-.31-.21-.5-.56-.49-.45,0-.89,0-1.34,0Zm-11.65,38.63c.06.34-.09.77.06,1.18.04.11.04.28.21.25.15-.03.23-.14.23-.31,0-.28.03-.56.03-.84,0-1.5.02-3,.01-4.51,0-.57-.04-1.14-.05-1.71,0-.19-.08-.37-.26-.39-.24-.02-.24.21-.23.37.02.3-.1.59-.07.88.13,1.67-.02,3.34.07,5.08Zm4.05-6.09c.03-.36.03-.71.06-1.07.02-.25-.03-.49-.18-.71-.09-.13-.22-.17-.37-.13-.14.04-.22.16-.2.28.1.53-.32.63-.64.75-.33.13-.45.37-.47.67-.05.72.12,1.44-.03,2.17-.02.09.03.21.07.31.06.15.16.28.35.22.17-.05.23-.16.21-.35-.04-.64-.05-1.29-.09-1.93-.03-.49.13-.78.57-.93.28-.1.39,0,.42.29.1.94-.14,1.86-.08,2.79.01.17-.09.38.16.4.21.01.2-.22.2-.36.01-.8,0-1.6,0-2.4Zm30.64,26.13c.21-.74.16-1.45.18-2.16.06-1.95-.12-3.91.01-5.87.07-1.04-.11-2.1,0-3.16.01-.15,0-.36-.2-.35-.22.01-.2.21-.2.4.01.89.03,1.79.01,2.68-.03,1.44.07,2.87,0,4.31-.04.8.03,1.61.02,2.41,0,.56-.17,1.15.19,1.73Zm-2.1-35.68s.01,0,.02,0c0,.26-.01.53,0,.79.02.29.19.44.49.44.28,0,.35-.18.39-.42.07-.39-.05-.76-.04-1.15.03-.88.02-1.76.02-2.63,0-.19-.08-.33-.25-.41-.17-.08-.34-.05-.49.05-.18.12-.15.33-.15.51,0,.94,0,1.88,0,2.82Zm-21.95,5.91c0-.2,0-.4,0-.6,0-.62-.48-.45-.82-.47-.32-.02-.57.11-.55.51.02.55-.04,1.1-.1,1.64-.02.19-.07.5.15.53.37.06.74.4,1.14.1.11-.08.08-.19.09-.3.04-.47.2-.94.09-1.42Zm-9-18.13c0-.17,0-.23-.02-.29-.04-.2.08-.48-.21-.55-.27-.07-.49.05-.69.27-.27.31-.44.67-.58,1.05-.23.66-.06,1.17.5,1.52.5.32.92.13.98-.45.05-.55-.1-1.1.02-1.55Zm5.46,21.23h0c0-.17.02-.34,0-.51-.04-.26-.14-.51-.45-.49-.31.02-.25.31-.26.51-.03.51-.05,1.02-.05,1.53,0,.83,0,1.66,0,2.49,0,.37.2.43.52.39.28-.03.26-.23.26-.41,0-1.17,0-2.34,0-3.51Zm42.09,23.17s-.02,0-.03,0c.01.18.02.37.05.55.01.07.07.16.16.11.05-.02.11-.09.11-.14.01-.82.03-1.65.01-2.47-.01-.52-.13-1.04-.04-1.56.15-.93.01-1.87.1-2.79.07-.69-.12-1.37-.06-2.07.05-.51-.07-1.03.06-1.55.04-.16-.04-.31-.16-.42-.08-.07-.17-.01-.25.05-.15.12-.11.27-.07.43.05.19.09.37.08.58-.04.82-.11,1.64-.03,2.45.11,1.07.03,2.14.06,3.2.03,1.21,0,2.42,0,3.62Zm-11.77-25.08c.14,0,.17,0,.2-.02.29-.07.75-.08.75-.38,0-.25-.45-.29-.75-.31-.96-.08-1.91-.2-2.89-.15-.82.04-1.62.09-2.42.25-.12.02-.26.02-.27.2,0,.11.08.18.17.19.77.09,1.54.49,2.33-.02.53-.34,1.12-.36,1.73-.1.39.17.83.24,1.14.33Zm-7.02,4.56c0,.34,0,.54,0,.74,0,.12.04.22.17.24.13.03.19-.07.24-.17.12-.27.09-.55.07-.82-.06-.75-.12-1.5,0-2.24.02-.15.02-.28.18-.33.16-.05.3-.02.42.11.12.13.2.29.19.46-.02.46.02.92,0,1.38-.02.38-.17.75-.08,1.14.03.11.04.24.17.25.17.02.17-.15.21-.26.01-.04.02-.09.02-.14,0-.89-.01-1.79-.01-2.68,0-.15-.04-.3-.16-.37-.4-.23-.7-.54-.9-.96-.05-.1-.16-.14-.28-.12-.15.03-.1.15-.13.26-.07.32.02.66-.03.96-.14.9.02,1.8-.09,2.55Zm-34.88,22.75s-.02,0-.03,0c0,.08,0,.16-.02.23-.02.17-.02.35.14.47.07.05.15.02.21-.04.14-.14.1-.32.06-.49-.04-.18-.07-.35-.06-.55.03-.94.03-1.87.02-2.81,0-.61-.15-1.23,0-1.84.17-.67.06-1.37,0-2.02-.06-.68.06-1.33.03-2-.02-.57-.02-1.14.03-1.71.01-.14,0-.37-.2-.34-.14.02-.19.25-.14.4.05.17.04.33.05.5.03.54-.18,1.12-.06,1.6.2.78.01,1.53.01,2.28,0,.87.03,1.75-.04,2.63-.09,1.22-.02,2.46-.02,3.68Zm41.87-21.56c-.06,1.17.06,2.34-.08,3.5-.03.22-.04.52.27.55.34.03.32-.26.32-.5,0-1.33.04-2.67,0-4-.02-.83-.02-1.67-.16-2.5-.02-.11.04-.3-.13-.3-.18,0-.25.2-.24.34.11.96,0,1.93.02,2.89Zm-52.71,27.4c-.17-.02-.32-.03-.47-.06-.19-.03-.31.06-.2.22.35.49.22,1.05.26,1.58.04.64.17.79.78.89.31.05.47-.02.5-.4.04-.63-.16-1.26,0-1.9.05-.19-.14-.3-.33-.32-.18-.02-.37,0-.55,0Zm37.43-56.1c0-.47-.13-.65-.51-.67-.57-.03-.84.11-.83.5.01.46-.08.85-.37,1.21-.13.16-.22.47.06.54.45.11.93.16,1.4.04.16-.04.25-.16.25-.34-.01-.43,0-.85,0-1.28Zm4.05,21.85c.02-.34.05-.56.04-.77-.02-.25.04-.58-.36-.58-.34,0-.68.09-.69.52-.02.74-.01,1.48,0,2.22,0,.31.2.46.48.43.26-.02.55-.01.61-.42.08-.52-.2-1.01-.08-1.4Zm-10.68,33.73s.02,0,.03,0c0-.62.01-1.24,0-1.86,0-.25-.12-.49-.4-.48-.26,0-.34.24-.36.47,0,.09,0,.18,0,.28,0,.58.05,1.15,0,1.72-.04.55.03,1.1.03,1.64,0,.23.13.47.38.44.23-.03.32-.26.32-.5,0-.57,0-1.15,0-1.72Zm-5.1-22.85c.15.04.31.03.33-.14.03-.23-.17-.22-.32-.23-.58-.04-1.17-.05-1.75-.11-.67-.07-1.35-.11-2.02-.19-.82-.1-1.63-.31-2.45-.46-.36-.07-.74.02-1.1-.12-.15-.06-.39-.16-.45.04-.05.19.2.28.37.34.09.03.18.04.27.04.32,0,.65.07.94.16,1.24.35,2.51.38,3.77.54.79.1,1.6.1,2.39.15Zm-16.6,17.03c.29-.09.27-.19.28-.28.17-1.26.1-2.54.06-3.8-.05-1.36.11-2.71.07-4.06-.02-.8,0-1.6-.02-2.41,0-.1.01-.2-.12-.2-.09,0-.09.1-.11.18-.1.4.02.79.05,1.19.06.89-.11,1.76-.08,2.66.03,1.06-.03,2.14-.1,3.21-.08,1.15-.02,2.31-.02,3.51Zm-11.31,7.64c0,.17-.03.34,0,.51.07.36.27.56.68.55.42-.01.51-.23.55-.59.06-.54-.18-1.07,0-1.61.04-.11-.05-.21-.16-.25-.33-.12-.68-.2-1.03-.22-.14,0-.18.06-.19.23-.02.47.21.91.15,1.37Zm3.78-1.25c-.22-.03-.46,0-.37.29.2.65.11,1.32.22,1.98.06.37.25.37.5.38.29,0,.45-.09.47-.42.03-.58-.08-1.17.28-1.71.17-.25-.02-.44-.31-.47-.26-.03-.53-.03-.79-.05Zm-2.2-8.94c.01.17.02.35.04.54.01.14.03.33.21.3.16-.02.16-.2.15-.35-.02-.23-.05-.46-.05-.69,0-1.74.11-3.47.03-5.21-.04-.83.09-1.66.08-2.5,0-.6-.11-1.23.03-1.83.02-.08-.01-.18-.03-.27-.02-.08-.07-.14-.16-.13-.1,0-.12.09-.12.17.07.79-.15,1.57-.07,2.35.12,1.08.05,2.16.06,3.24.02,1.46-.02,2.92-.17,4.4Zm43.42-22.57c.05-.29-.06-.49-.37-.51-.24-.02-.35.2-.31.37.07.29.03.58.05.87.1,1.1.06,2.21.04,3.31,0,.17-.01.31.2.35.21.04.3-.03.36-.24.07-.25.1-.5.05-.73-.24-1.14.16-2.28-.04-3.41Zm-2.11-68.48c0,.36,0,.62,0,.88,0,.31.06.58.44.57.36,0,.5-.23.51-.58.01-.54.05-1.08.07-1.62,0-.18-.02-.37-.05-.55-.04-.23-.13-.37-.41-.29-.15.04-.31.03-.46.04-.21.01-.3.13-.22.31.2.43.06.89.12,1.24Zm-35.75,100.98c-.1.35.06.79.08,1.24.01.22.08.52.44.48.33-.04.53-.14.51-.55-.02-.55,0-1.12.11-1.65.1-.48.11-.56-.38-.55-.68,0-.72.04-.75.71,0,.08,0,.15-.02.33Zm-3.48-20.93c-.07-.36-.36-.38-.57-.45-1.17-.4-2.38-.68-3.48-1.27-.6-.32-1.24-.54-1.77-.98-.09-.07-.23-.17-.33-.06-.1.11.02.25.11.31.4.28.76.63,1.21.84,1.05.51,2.16.86,3.22,1.32.51.22,1.03.32,1.61.27Zm60.62,25.09c0-.6-.21-.77-.8-.65-.12.03-.24.04-.37.04-.7.01-.78.11-.67.8.02.11.01.21.03.32.04.23.16.4.39.48.84.29,1.41-.11,1.42-.99Zm-18.29-33.18c0,.09-.01.19-.02.28,0,.2.01.4.26.42.27.03.33-.18.37-.39.02-.09,0-.18,0-.28-.02-1.15-.03-2.31-.06-3.46,0-.26.2-.7-.24-.72-.45-.02-.33.44-.33.73-.02,1.14.08,2.28.02,3.42Zm-39.99,27.99c-.22.07-.56.02-.6.41-.08.73.05,1.45.14,2.18.02.19.2.31.41.3.15,0,.29-.06.31-.23.04-.38.23-.74.14-1.14-.07-.31,0-.62.08-.92.12-.47.03-.59-.48-.6Zm20.21-34.08s0,0,.01,0c0-.31,0-.62,0-.93,0-.41-.26-.54-.6-.54-.37,0-.42.3-.4.56.04.63.03,1.26.03,1.88,0,.31.24.44.54.46.32.03.41-.16.42-.42.01-.34,0-.68,0-1.02Zm-21.77,37.51c-.19-.02-.34-.05-.5-.04-.17,0-.32.03-.39.25-.19.61.26,1.21.89,1.16.27-.02.52-.11.81.02.25.11.44-.18.4-.37-.07-.31.27-.68-.15-.92-.01,0-.03,0-.05,0-.35.02-.69-.2-1.01-.08Zm59.77-.77c.02.22.03.41.05.59.04.36.31.54.74.45.31-.07.43-.29.35-.6-.13-.46-.12-.91.05-1.36.07-.17.1-.35-.06-.47-.29-.21-.6-.03-.9,0-.18.02-.2.19-.18.33.04.37.02.73-.05,1.06Zm-9.8-15.07c-.14.76-.09,1.48-.12,2.2-.04,1.1.09,2.2.03,3.31-.04.61-.02,1.23-.07,1.85-.01.13-.02.36.16.38.17.02.17-.19.18-.32.09-1.42.21-2.83.06-4.26-.05-.44-.07-.9,0-1.38.06-.51-.09-1.07-.07-1.61,0-.04-.07-.08-.15-.17Zm-16.76,10.4c0-.14,0-.28,0-.42-.01-.2-.09-.39-.3-.41-.25-.02-.26.19-.31.38-.08.26.12.48.06.73-.21.94-.01,1.91-.16,2.86-.04.23.07.37.28.4.28.04.28-.18.29-.36.02-.43-.04-.87.05-1.29.13-.63.01-1.26.1-1.88Zm16.37-22.18c.03.22-.04.43.04.65.03.08.02.2.15.19.12,0,.15-.11.15-.2.02-.46.11-.93.04-1.38-.14-.89-.02-1.78-.07-2.67-.06-.91-.01-1.84-.04-2.76,0-.14-.01-.32-.19-.31-.18.01-.16.19-.15.33.04.51.15,1.02.12,1.52-.11,1.54,0,3.09-.05,4.63Zm-22.64,22.04c.08-.35.02-.64-.21-.68-.29-.05-.26.3-.28.48-.15,1.1-.17,2.21-.05,3.31.02.21.08.48.35.46.26-.02.19-.29.19-.45.01-1.07,0-2.15,0-3.13Zm5.23-119.76h0c0-.23.03-.47,0-.7-.07-.38-.41-.45-.71-.46-.19,0-.45.07-.43.38.03.44.06.89.08,1.34.02.42.31.49.64.52.37.04.4-.22.41-.48.01-.2,0-.4,0-.6Zm19.75,98.37c.13.05.3.05.43-.03.55-.37,1.16-.68,1.59-1.2.16-.19.37-.36.43-.64.21-1.03-.59-2.7-1.65-3.16-.1-.04-.22-.14-.28-.02-.08.14.09.15.17.21.9.67,1.39,1.56,1.43,2.69.01.31-.1.52-.32.77-.52.59-1.27.84-1.8,1.38Zm-32.43-10.29c-.02.19-.03.29-.03.38-.01.26,0,.53.33.56.32.03.39-.21.42-.48.06-.41-.08-.83.06-1.24.07-.22.04-.42-.02-.63-.08-.27-.21-.46-.52-.41-.3.05-.31.31-.31.54.01.46.04.92.06,1.28Zm-25.23,35.08c-.12.44.09.62.44.62.4,0,.33-.29.32-.57-.02-.5-.19-1.01.02-1.51.06-.13-.07-.19-.17-.23-.2-.08-.41-.15-.61-.22-.22-.08-.25,0-.23.23.07.58.1,1.16.22,1.69Zm41.98-25.23c-.15-.01-.26-.03-.37-.02-.15,0-.36-.07-.38.14-.02.22.2.17.35.19.52.07,1.02,0,1.54-.05,1.12-.1,2.24-.15,3.35-.26.5-.05,1.01-.06,1.49-.22.08-.03.21-.04.18-.16-.02-.13-.14-.09-.23-.08-.38.04-.77.05-1.14.12-1.6.31-3.22.22-4.79.34Zm27.08,26.57c.01.09.03.18.03.28,0,.21-.05.51.22.53.31.03.4-.25.44-.53.07-.57-.03-1.17.28-1.71.08-.14-.03-.33-.22-.32-.21,0-.42.05-.63.11-.09.02-.2.07-.16.23.1.47.05.94.05,1.41Zm-15.22-25.52s0,.02,0,.04c.29-.02.58-.04.87-.08.24-.03.32-.22.34-.43,0-.16.06-.36-.13-.46-.2-.1-.33.02-.48.16-.28.25-.59.29-.92.03-.17-.13-.34-.25-.45-.45-.05-.1-.16-.18-.25-.03-.28.45.07,1.16.6,1.21.14.01.28,0,.42,0Zm13.67,25.84c-.09.2-.01.39.15.53.11.1.24,0,.34-.06.22-.13.26-.43.21-.56-.2-.52-.11-.98.17-1.43.08-.13.05-.26-.06-.33-.26-.15-.51-.01-.75.07-.2.07-.18.25-.17.43.04.44.08.89.11,1.34Zm-26.2-55.47c.14.2.32.18.48.18,1.26-.02,2.51-.23,3.77-.3.06,0,.13-.02.14-.1.01-.08-.04-.12-.11-.1-.38.09-.74-.13-1.1-.09-.72.08-1.45.06-2.17.07-.41,0-.68.17-1.01.34Zm-.82,50.76c.04-.25,0-.44-.06-.64-.03-.1-.06-.24-.19-.23-.15.01-.1.16-.12.26-.13.67-.01,1.35-.12,2.02-.07.45-.07.91-.09,1.37,0,.11.02.27.18.27.12,0,.17-.12.19-.23.07-.36.22-.73.19-1.08-.06-.6.02-1.2.02-1.75Zm-29.75-10.02c0,.16,0,.28,0,.4-.08.89.09,1.79-.03,2.67-.13.93.01,1.85.02,2.77,0,.11-.03.31.14.29.19-.02.13-.21.11-.34-.02-.14-.07-.28-.05-.41.18-1.71,0-3.42.05-5.12,0-.12-.04-.21-.23-.27Zm37.07-22.34s.01,0,.02,0c0-.4,0-.8,0-1.2,0-.19-.09-.4-.31-.39-.2,0-.24.2-.24.39,0,.57.01,1.13.01,1.7,0,.2-.06.4-.04.59.01.18.07.41.31.39.23-.02.27-.2.26-.41-.02-.35,0-.71,0-1.06Zm-7.25,11.37c-.02-.53-.23-1.01-.32-1.52-.02-.12-.08-.21-.22-.16-.15.05-.31.08-.29.29.05.57.08,1.13.14,1.7.02.14.04.35.22.37.16.02.27-.13.38-.24.12-.12.11-.28.09-.44Zm5.73-11.67c-.04-.31-.09-.64-.14-.98-.01-.09-.03-.19-.15-.21-.14-.03-.18.1-.23.18-.07.11-.04.24-.04.36.02.69.07,1.38,0,2.07-.01.16-.06.39.18.4.21,0,.31-.18.33-.38.05-.47-.08-.95.04-1.45Zm-29.42.18c-.5.17-1.14.01-1.67.36-.1.06-.27.03-.24.21.02.16.19.13.29.18.67.36,1.24-.01,1.83-.25.15-.06.38-.13.33-.33-.05-.22-.3-.16-.54-.17Zm7.14,2.02c-.04.19-.1.34-.1.49,0,1-.02,1.99,0,2.99,0,.25-.1.49-.06.73.03.15.03.35.25.3.19-.04.16-.22.11-.34-.07-.2-.1-.39-.07-.59.11-.99.03-1.98.1-2.96.01-.21.05-.44-.23-.61Zm21.26,7.16c-.71,0-1.35-.02-1.99.08-.16.03-.32.12-.5.03-.53-.28-1.09-.04-1.63-.07-.09,0-.19.05-.21.16-.01.12.1.14.19.16.11.02.21.06.32.05,1.11-.1,2.22-.1,3.32-.12.18,0,.34-.02.49-.29Zm-26.82-9.05c.37.39.72.64,1.07.75.45.14.92-.14,1.37-.27.07-.02.08-.1.06-.16-.03-.08-.1-.11-.18-.12-.23-.02-.47,0-.68-.1-.5-.24-1.02-.1-1.65-.11Zm29.59,11.46c-1.59.15-3.19.09-4.77.38,1.61.19,3.2.03,4.77-.38Zm-37.63,23.17c.04.41.05.73.1,1.05.03.23-.07.64.16.64.34,0,.27-.41.31-.67,0-.03,0-.06,0-.09,0-.43-.12-.87.25-1.23.09-.09.04-.2-.04-.29-.08-.09-.15-.12-.28-.1-.47.08-.55.38-.5.69Zm29.69-21.79c.16.19.32.2.5.14.27-.09.51-.22.83-.08.16.07.44-.03.47-.33.03-.29,0-.58-.31-.71-.21-.08-.44-.13-.58.18-.18.38-.56.56-.91.8Zm-31.1,18.31c.05-.57-.22-1.18-.13-1.82.02-.13-.06-.25-.17-.31-.1-.05-.17-.23-.31-.11-.11.09-.02.21.03.3.07.13.07.26.07.41.01.66.04,1.32.04,1.98,0,.17,0,.32.21.35.23.04.24-.14.26-.3.01-.14,0-.28,0-.49ZM81.37,28.51s0,0,0-.01c.14,0,.28-.01.42,0,.34.04.46-.13.43-.43-.03-.3-.22-.44-.52-.37-.17.03-.32.04-.5,0-.28-.08-.65.19-.64.44,0,.35.22.44.53.39.09-.01.18-.01.28-.01Zm-31.54,109.1c.03.26-.11.53.02.78.05.11.11.25.26.24.15-.01.18-.16.2-.28.02-.11,0-.22,0-.32.06-.52-.16-1.05.04-1.57.05-.13-.01-.24-.14-.31-.17-.09-.29.04-.35.14-.09.16-.17.35-.1.53.09.26.01.53.06.78ZM81.53,11.84h-.02c.02-.26.05-.52.07-.78.01-.2-.11-.27-.28-.3-.18-.04-.28.06-.29.22-.05.57-.06,1.14,0,1.7.02.17.19.24.35.22.16-.02.17-.14.17-.28,0-.26,0-.52,0-.78Zm-20.34,102.06c.06.12.17.11.25.13.53.18,1.1.1,1.63.24.66.19,1.34.09,2,.24.09.02.2-.01.22-.12.01-.11-.08-.16-.17-.19-.07-.02-.15-.02-.23-.03-1.1-.12-2.2-.25-3.3-.37-.13-.01-.28-.09-.4.08Zm46.61,13.11c.06-1.67.14-3.33-.12-4.99.14,1.66-.26,3.34.12,4.99Zm-28.94-102.39c0-.23,0-.34,0-.45,0-.15.02-.35-.21-.33-.19.02-.21.19-.21.36,0,.2,0,.4,0,.6,0,.63.01,1.26.03,1.89,0,.11.05.23.19.22.1,0,.15-.09.17-.19.02-.12.09-.26.06-.36-.17-.62.15-1.25-.02-1.74Zm10.63,74.67c-.33-.2-4.16.47-4.28.62,1.5.3,2.83-.54,4.28-.62Zm-14.15,14.61c.11-.29-.2-.64-.19-1.04,0-.14-.06-.34-.27-.31-.22.03-.17.24-.15.38.07.43.1.85,0,1.28-.03.1.02.21.05.32.04.16.12.3.3.3.22,0,.21-.19.23-.34.02-.15.02-.31.04-.59Zm.88-102.64s-.01,0-.02,0c0-.12.02-.25,0-.37-.02-.13-.11-.22-.26-.2-.13.02-.28.07-.25.21.11.55-.14,1.1,0,1.64.04.15.08.38.29.36.2-.02.22-.24.23-.41.01-.41,0-.83,0-1.24Zm-14.47,91.37c0,.2,0,.4,0,.6,0,.11.02.23.16.24.13,0,.25-.07.28-.2.03-.12.02-.25,0-.37-.09-.46-.11-.92.05-1.37.05-.13.01-.24-.03-.36-.05-.14-.07-.34-.27-.32-.24.02-.23.26-.21.4.07.46-.02.92.03,1.39Zm13.55-90.82s.01,0,.02,0c0-.22,0-.43,0-.65,0-.18-.03-.36-.25-.38-.22-.02-.39.13-.37.32.05.49-.03.99.13,1.46.04.13.1.28.28.24.18-.04.24-.18.23-.35-.01-.22-.03-.43-.04-.65Zm7.23-.33c-.01-.12-.02-.21-.03-.3-.01-.18-.04-.37-.26-.36-.19,0-.3.15-.32.34-.01.11-.03.22,0,.32.09.32.06.64.03.96-.02.2-.07.45.23.45.28,0,.35-.24.33-.47-.03-.32-.06-.64.03-.94Zm26.09,126.75c0,.31-.06.62.06.92.04.11.07.28.21.27.16,0,.14-.17.14-.3.01-.43.03-.85.15-1.27.02-.09,0-.19-.01-.28-.03-.16-.07-.32-.28-.3-.2.02-.31.14-.3.35,0,.2.02.4.03.6ZM74.89,17.11c-.03.48.17.76.47.69.29-.07.37-.29.38-.56,0-.27.12-.56-.23-.73-.16-.08-.27-.07-.42.05-.19.16-.24.35-.2.55Zm-37.65,120.04c.01-.47-.16-.91.12-1.31.06-.09-.02-.18-.11-.22-.11-.05-.24-.11-.35-.02-.14.1-.18.27-.14.42.1.37,0,.74.07,1.11.05.24-.12.67.19.67.39,0,.14-.45.22-.64ZM74.41,11.57c-.06-.13,0-.3-.02-.47,0-.13.03-.32-.18-.3-.17,0-.27.13-.28.31-.02.4-.04.8-.05,1.2,0,.09.02.19.06.27.07.14.19.26.37.21.17-.05.16-.22.14-.35-.05-.28-.08-.55-.03-.87Zm19.17,112.04c.16-.07.17-.18.17-.28.01-.96.02-1.92.03-2.88,0-.12-.02-.29-.18-.27-.19.02-.16.2-.16.34.02.69.02,1.38.07,2.07.03.34-.08.69.07,1.03Zm14.17-1.79c.16-.06.13-.17.12-.28-.02-.37-.04-.74-.04-1.1,0-.69,0-1.39,0-2.08,0-.15.05-.39-.12-.4-.22-.01-.12.22-.13.36-.03.9,0,1.8.06,2.7.02.27-.09.55.1.8ZM77.06,11.61c-.01-.11-.02-.2-.04-.3-.03-.16-.02-.38-.26-.37-.23,0-.21.24-.23.39-.05.4.08.8.01,1.2-.02.14.07.29.23.3.18.01.26-.13.24-.27-.04-.33-.04-.65.04-.95Zm-35.86,102.33c-.03-.13-.13-.15-.24-.18-.31-.1-.6-.24-.9-.36-.49-.2-.88-.56-1.37-.74-.09-.03-.18-.1-.24.01-.05.1.02.18.12.21.3.09.48.37.75.51.54.28,1.19.3,1.7.65.07.04.15,0,.17-.1Zm32.79-29c.32-.03.58-.05.84-.08.08,0,.17-.02.18-.11.02-.11-.1-.09-.14-.14-.49-.53-1-.03-1.5-.03-.04,0-.1.08-.1.13-.01.08.05.15.13.17.21.03.43.05.59.06Zm6.11-73.25c.09.26,0,.56.07.85.03.12.06.28.21.27.17,0,.23-.17.22-.31,0-.39-.08-.77,0-1.16.02-.11-.02-.22-.15-.25-.13-.03-.2.06-.25.16-.07.13-.1.26-.1.43Zm-11.63,125.01c.26-.23.33-.47.23-.74-.08-.21-.12-.49-.01-.63.3-.39,0-.79.1-1.16.02-.1-.02-.2-.12-.22-.14-.02-.11.11-.12.19-.02.28-.06.55-.06.83-.01.58,0,1.15,0,1.73Zm-7.79-35.87c-.03.5-.02,1.01-.09,1.5-.03.21.25.7-.37.58-.09-.02-.09.1-.05.18.09.16.24.25.43.21.19-.04.23-.21.2-.36-.03-.15,0-.29-.01-.44,0-.56.18-1.12-.11-1.67Zm26.12,12.85s0-.02,0-.03c-.14,0-.28,0-.42,0-.08,0-.17,0-.19.09-.02.13.1.14.18.16.09.02.19,0,.28.02.58.14,1.13-.22,1.71-.13.09.01.25-.05.2-.18-.04-.1-.18-.14-.32-.12-.48.07-.96.12-1.44.18Zm8.97,25.18c.19-.12.16-.24.16-.37-.01-.41-.03-.83,0-1.24.01-.16.09-.32-.14-.35-.19-.02-.21.16-.23.29-.06.56.02,1.1.21,1.66Zm-14.24-99.84c-.02-.15-.17-.26-.14-.42.02-.13.02-.26-.15-.29-.14-.02-.24.05-.32.15-.06.07-.1.15-.14.24-.07.15-.41.08-.32.31.09.23.36.11.54.14.18.02.37,0,.53-.12Zm-1.12,97.72c.08-.79.29-1.57.2-2.37,0-.1-.02-.21-.12-.23-.14-.02-.13.11-.12.19.11.8-.19,1.61.04,2.41Zm-29.19.88c.25-.47.17-.96.14-1.45,0-.13,0-.32-.21-.29-.17.03-.18.21-.15.34.11.46.14.92.22,1.39Zm29.64-105.6c.01.18.03.36.25.32.23-.05.52-.07.52-.42,0-.26-.14-.43-.39-.42-.34,0-.32.31-.39.52Zm-4.57,80.36c.1.65-.27,1.37.2,1.98.16-.68-.13-1.32-.2-1.98Zm18.33-7.41c.49-.02.53-.07.3-.46-.07-.12-.06-.24-.04-.36.01-.11-.03-.18-.14-.2-.08-.02-.18-.02-.21.05-.12.3.09.64-.11.94-.02.03.12.05.2.03Zm-13.81-74.5c.02.24.04.42.28.41.28-.02.48-.18.49-.46,0-.22-.2-.32-.39-.32-.27,0-.36.19-.37.37Zm-2.59,86.27c-.7.03-1.35,0-2.02.15.51.24,1.69.16,2.02-.15Zm3.41-77.67c.42,0,.72.05.99-.09.12-.06.26-.15.19-.32-.06-.13-.2-.13-.33-.11-.3.06-.53.23-.85.51Zm-33,82.3c-.12.67.03,1.28-.05,1.87,0,.06.04.13.11.12.1-.01.14-.11.1-.17-.15-.22,0-.42.03-.62.05-.38.06-.76-.18-1.19ZM83.05,12.74c.16-.55.17-.99.1-1.43,0-.04-.07-.1-.12-.11-.07-.02-.13.05-.12.11.09.43-.13.88.15,1.44Zm-23.56,100.81c.16.19.9.4,1.09.31.14-.07.08-.18,0-.2-.35-.08-.69-.38-1.08-.11Zm19.45-29.48c-.38-.37-.73-.29-1.08-.2-.04.01-.1.09-.1.13,0,.11.11.16.2.15.3-.02.59-.05.98-.09Zm-2.63-68.72c.04-.51.08-.9.1-1.28,0-.07-.01-.16-.11-.17-.09-.01-.16.04-.17.12-.04.41-.14.83.18,1.33Zm-24.29,94.79c-.24,0-.3.16-.31.34-.01.2.15.28.3.28.17,0,.31-.1.29-.29-.02-.15-.04-.36-.28-.34Zm15.53-9.76c-.42-.21-.85-.24-1.3-.09.42.19.86.19,1.3.09Zm-24.17,14.2c-.54-.38-.98-.48-1.36-.31.43.13.83.3,1.36.31Zm5.35,4.76s-.08,0-.13,0c-.02.59-.07,1.18.13,1.76v-1.76Zm37.73-8.11c-.45,0-.91-.04-1.32.18.46.07.9,0,1.32-.18Zm-31.07-8.04c.25,0,.51.17.73-.04.07-.06-.02-.17-.12-.21-.28-.14-.46-.02-.61.25Zm-3.24,8.85c-.12-.17-.27-.33-.48-.39-.1-.03-.23.03-.21.12.05.2.19.35.42.38.11.01.22.04.28-.11Zm44.06-2.27c-.15.07-.22.09-.28.13-.07.03-.14.06-.2.11-.13.09-.44.2-.17.36.19.12.43-.16.6-.34.03-.04.03-.11.06-.25Zm-16.99-9.28c.4,0,.68,0,.97,0,.08,0,.16-.02.16-.12,0-.04-.05-.1-.07-.1-.33.03-.69-.2-1.06.22Zm28.53,27.55c-.03.31-.04.49-.15.65-.09.13.04.23.09.34.02.06.08.09.15.04.1-.08.1-.18.1-.3,0-.22-.02-.43-.18-.73Zm-12.34-23.3c.31-.2.33-.46.28-.74-.02-.09-.09-.16-.2-.16-.09,0-.16.08-.11.15.18.23-.04.47.02.74Zm-14.02-64.72c0-.17-.14-.23-.28-.24-.15-.01-.23.09-.23.23,0,.17.11.25.27.25.15,0,.23-.08.24-.24Zm-.22-5.63c.27.1.53.18.8.11.1-.03.22-.08.18-.22-.03-.12-.13-.09-.23-.07-.25.06-.5.12-.75.18Zm.27,1.76c0-.12-.04-.24-.18-.21-.18.03-.29.17-.33.34-.03.13.07.2.19.19.19-.01.3-.13.32-.32Zm14.6,75.51s-.02-.08-.03-.13c-.26.09-.52.17-.78.27-.05.02-.07.11-.02.16.07.08.15.1.24.04.19-.12.39-.23.59-.35Zm-14.79-78.2c.13-.04.28-.09.28-.25,0-.15-.12-.25-.28-.23-.14.02-.27.1-.25.27.01.14.1.21.25.21Zm.2,4.01c-.02-.14-.08-.25-.23-.24-.15,0-.26.11-.27.27,0,.15.09.23.23.23.16,0,.25-.1.27-.26Zm2.71,62.59c.28.13.51.1.73-.04.05-.03.07-.12,0-.16-.22-.13-.41.05-.62.09-.03,0-.05.04-.12.1Zm-4.55-72.32c-.12,0-.2.06-.18.16.03.18.12.32.31.34.1.01.18-.07.18-.17,0-.19-.14-.29-.31-.34Zm-21.76,59.33c-.11-.02-.17.03-.16.12.02.17.13.27.3.29.08.01.17.01.17-.08,0-.21-.23-.21-.32-.33Z"/><path d="m85.24,24.34c.06.73-.14,1.4-.11,2.07.03.73.01,1.45.08,2.18.07.79.04,1.58-.01,2.36-.08,1.36-.01,2.72-.03,4.09-.02,1.7-.03,3.39-.05,5.09,0,.83-.02,1.66.02,2.49.04,1.03-.07,2.07-.07,3.11,0,.83.12,1.66.1,2.49-.03,1.17-.02,2.34-.03,3.51,0,.14,0,.33-.17.34-.21,0-.18-.18-.18-.34-.03-2.52-.12-5.04-.1-7.56.01-1.48,0-2.96.08-4.45.04-.73,0-1.49.01-2.22.02-.91.01-1.82.03-2.73.01-.77-.13-1.53-.07-2.3.06-.72.09-1.45.11-2.17.02-.61-.02-1.23-.03-1.85,0-1.6-.04-3.2-.06-4.81,0-.21-.01-.45.27-.44.28.01.19.27.19.44,0,.25,0,.5,0,.7Z"/><path d="m87.94,33.7c-.03-1.17.07-2.16,0-3.15-.06-.93-.06-1.87-.09-2.81,0-.19-.05-.44.18-.46.28-.02.31.23.31.47,0,1.05-.01,2.11,0,3.16,0,2.4.05,4.8-.06,7.2-.05,1.12-.12,2.25-.07,3.36.04.86-.11,1.73.02,2.58.05.33-.09.63-.11.96-.06,1.07.07,2.12.04,3.19-.03,1.15-.03,2.31-.06,3.46,0,.16.06.44-.23.42-.24-.02-.15-.25-.15-.41,0-1.24-.02-2.48.02-3.72.04-1.2-.13-2.41,0-3.61.08-.78.09-1.57.09-2.35,0-1.06-.03-2.13-.03-3.19,0-1.07.05-2.13.13-3.19.05-.69-.02-1.39.03-1.9Z"/><path d="m86.65,26.15c0,1.67-.04,3.34,0,5,.06,2.19-.07,4.37-.02,6.55.01.65-.04,1.31.1,1.98.08.39-.07.85-.1,1.28-.07,1.22-.07,2.45-.08,3.67,0,.81-.1,1.63-.01,2.46.06.58-.08,1.17-.06,1.76.03,1,0,2,.01,3.01,0,.13.01.29-.13.31-.16.03-.18-.14-.2-.26-.03-.17-.07-.35-.04-.51.22-1.06.05-2.12.05-3.18,0-1.15.07-2.3.06-3.46-.03-1.99.07-3.98.09-5.98.01-1.03-.04-2.07-.15-3.1-.07-.65.08-1.31.09-1.97.03-1.58-.05-3.15-.04-4.73,0-1.08-.05-2.16.04-3.24,0-.11.01-.22.03-.32.02-.11.08-.22.21-.21.13.01.16.14.17.24,0,.23,0,.46,0,.7,0,0-.02,0-.03,0Z"/><path d="m89.31,40.55c-.05-.78.03-1.32.07-1.86.09-1.21-.13-2.41-.08-3.62.04-.98.1-1.97.12-2.95,0-.37-.04-.74.04-1.11.02-.1.03-.26.15-.26.15,0,.18.16.18.28.03.59.07,1.18.05,1.76-.05,1.37-.13,2.73-.02,4.1.06.69-.03,1.41-.06,2.12-.05,1.09-.15,2.19-.13,3.29.04,1.89.04,3.78-.02,5.67-.04,1.17.04,2.33.02,3.5,0,.03,0,.06,0,.09-.05.21-.08.52-.31.51-.26,0-.19-.33-.18-.5.14-1.38-.02-2.76,0-4.13.03-1.56-.03-3.13.06-4.69.04-.81.08-1.63.1-2.2Z"/><path d="m85.93,74.01c-.03-.46.02-.93.03-1.39.01-1.12-.04-2.25,0-3.37.05-1.27-.05-2.53-.04-3.79.03-2.46.15-4.92.15-7.38,0-1.2,0-2.41-.01-3.61,0-.11,0-.22.03-.32.03-.11.09-.2.23-.19.13.01.18.1.2.22,0,.05,0,.09,0,.14-.07,2.71-.15,5.43-.17,8.15-.01,1.7.07,3.4.07,5.1,0,1.41-.06,2.82-.08,4.22-.01.8.01,1.61.01,2.41,0,.18.1.48-.2.48-.33,0-.15-.3-.18-.47-.01-.06-.01-.12-.02-.19Z"/><path d="m87.51,71.87c-.07-1.4-.04-3.02-.01-4.65.03-1.77.06-3.55.1-5.32.03-1.51.05-3.02.04-4.53,0-1.05.05-2.1.06-3.15,0-.13.02-.32.2-.32.14,0,.2.17.2.27.01.57,0,1.14-.01,1.7-.03,1.22-.1,2.44-.08,3.66.01.99-.12,1.97-.11,2.96,0,.74.02,1.47,0,2.21-.03,1.09-.03,2.18-.06,3.26-.04,1.68,0,3.36,0,5.05,0,.2,0,.4,0,.6,0,.12.04.29-.13.29-.17,0-.2-.17-.2-.32,0-.5,0-.99,0-1.72Z"/><path d="m84.49,73.53c-.09-1.82.14-3.64.14-5.45,0-1.14-.14-2.27-.1-3.41.05-1.33.11-2.65.1-3.98,0-.95-.02-1.92,0-2.86.02-.77-.11-1.54,0-2.31.06-.39-.02-.8-.06-1.2-.02-.19-.01-.4.19-.4.23,0,.12.23.13.36.11,1.43-.01,2.87.04,4.3.06,1.61-.12,3.21-.02,4.82.07,1.04-.07,2.09,0,3.13.07,1.15-.03,2.29,0,3.44.03,1.16-.02,2.33-.04,3.5,0,.49.07.99-.01,1.48-.02.14-.02.31-.21.3-.21,0-.17-.2-.17-.32-.01-.46,0-.93,0-1.4Z"/><path d="m89.02,72.6c0-1.84-.04-3.68.02-5.51.03-1.03.04-2.06.01-3.09-.04-1.62.12-3.23.1-4.84-.02-1.61.03-3.22.01-4.83,0-.09,0-.19,0-.28.01-.12.03-.28.19-.27.17,0,.16.16.16.29,0,.66-.02,1.32,0,1.99.04,1.43-.07,2.86,0,4.29.03.55-.04,1.11-.09,1.66-.07.72-.03,1.43.04,2.13.07.7-.14,1.37-.07,2.07.08.66,0,1.35.06,2.01.03.35-.08.67-.07,1.01.01,1.18,0,2.35-.01,3.53,0,.16.12.49-.18.48-.26,0-.18-.31-.17-.5,0-.05,0-.09,0-.14,0,0,0,0,.01,0Z"/><path d="m86.03,91.45c0,.12-.02.25,0,.36.07.35-.08.59-.41.56-.29-.02-.48-.3-.43-.61.04-.24.08-.48.07-.72,0-.3.16-.58.47-.58.32,0,.27.31.29.53.01.15,0,.31,0,.46,0,0,0,0,0,0Z"/><path d="m83.86,29.79c.02.54-.03,1.08.06,1.62.02.14.02.31-.16.33-.2.02-.26-.14-.26-.31.01-.97.1-1.94.02-2.91,0-.11,0-.28.17-.27.16,0,.16.15.16.28,0,.42,0,.84,0,1.26Z"/><path d="m87.22,91.42c.03.22.02.55-.3.79-.2.15-.32.12-.36-.11-.07-.38-.14-.76-.06-1.14.05-.24.15-.5.42-.45.23.04.4.26.31.57-.02.07,0,.15,0,.35Z"/><path d="m84.66,90.52c.15.07.35.19.31.34-.12.36-.02.71-.06,1.05-.03.19-.04.45-.31.44-.28-.01-.25-.27-.25-.46,0-.32.02-.65.03-.97,0-.19.1-.32.29-.4Z"/><path d="m69.66,26.05c.09.53-.05.99.04,1.45.02.11,0,.28-.16.28-.14,0-.21-.13-.21-.26.01-.63.07-1.25,0-1.88-.01-.11.06-.22.19-.22.14,0,.16.13.15.24,0,.15-.02.31-.02.38Z"/><path d="m70.98,21.95c-.02-.26-.04-.52-.06-.78-.02-.16-.03-.35.16-.37.17-.02.2.17.21.31.01.46.01.92.01,1.38,0,.11-.01.24-.14.26-.17.03-.2-.14-.22-.24-.03-.18,0-.37,0-.55.02,0,.04,0,.05,0Z"/><path d="m69.48,22.15c-.01-.22-.04-.45-.04-.68,0-.1.04-.22.18-.23.16-.01.17.12.18.22.03.42.05.83.06,1.25,0,.16-.11.28-.25.28-.2,0-.17-.18-.17-.32,0-.17.03-.34.05-.52Z"/><path d="m79.02,21.84c.07-.41-.15-.75,0-1.1.03-.08.02-.21.14-.2.1,0,.15.1.17.2.1.52-.07,1.04-.03,1.56,0,.04-.07.08-.11.13-.04-.04-.11-.08-.12-.13-.03-.17-.03-.33-.04-.45Z"/><path d="m83.47,91.28c-.08.32.01.62.04.93.01.11-.01.23-.15.25-.11.01-.18-.1-.18-.18,0-.52,0-1.05.02-1.57,0-.04.07-.12.11-.12.1-.02.12.07.13.15.01.18.02.37.03.54Z"/><path d="m87.89,91.93c-.3-.33-.19-.7-.12-1.06,0-.04.09-.1.13-.1.11,0,.14.11.16.2.06.33-.12.63-.18.96Z"/><path d="m72.86,74.97c.07-1.12,0-2.25.03-3.37.06-1.73-.01-3.46.02-5.19.04-2.29.05-4.59.07-6.88.03-2.54,0-5.09,0-7.63,0-1.44-.03-2.88-.01-4.32.02-1.23.12-2.47.13-3.7,0-1.02-.07-2.04-.1-3.05-.05-1.39.03-2.75.65-4.03.05-.1.09-.19.15-.28.07-.11.15-.2.3-.15.14.05.17.18.18.3,0,.1-.02.22-.07.32-.5,1.11-.41,2.3-.44,3.47-.02,1,.08,2.01,0,2.99-.18,1.96-.03,3.92-.07,5.88-.02,1.16-.19,2.32-.11,3.47.1,1.38-.03,2.76,0,4.15.02,1.5-.01,2.99-.02,4.49,0,1.43-.14,2.86-.08,4.28.09,2.03,0,4.05-.01,6.08-.01,1.12.08,2.25-.05,3.37-.04.36.04.74.06,1.11,0,.12.06.29-.08.33-.16.05-.3-.09-.37-.22-.19-.33-.23-.7-.21-1.08,0-.11.02-.22.03-.32Z"/><path d="m72.54,78.59c.16.07.36.08.54.19.94.57,1.88,1.12,2.83,1.67.04.02.09.03.12.07.1.12.34.24.25.4-.12.23-.3,0-.43-.06-.75-.34-1.4-.86-2.11-1.26-.42-.23-.83-.48-1.25-.72-.09-.05-.14-.12-.12-.23.02-.07.08-.09.17-.07Z"/><path d="m72.22,79.49c.33.07.63.26.9.45.67.47,1.4.85,2.09,1.3.11.08.34.15.24.34-.09.15-.26.02-.37-.04-.93-.52-1.86-1.05-2.78-1.59-.12-.07-.28-.17-.27-.35,0-.09.1-.11.2-.1Z"/><path d="m74.99,78.8c-.03.13-.12.14-.21.1-.41-.15-.75-.41-1.12-.64-.07-.04-.08-.13-.05-.21.03-.07.09-.1.15-.07.42.19.82.4,1.18.7.03.03.04.08.06.12Z"/><path d="m72.99,81.15c0,.12-.07.14-.15.13-.08,0-.16-.01-.22-.05-.26-.15-.58-.23-.74-.52-.02-.05.04-.13.11-.12.35.06.67.21.94.45.03.03.04.08.06.11Z"/><path d="m80.05,24.96c.04-.21-.03-.48.26-.43.27.05.39.3.4.55.01.23-.15.4-.37.4-.41,0-.19-.38-.3-.52Z"/><path d="m93.28,104.83c-.16-.01-.25-.09-.26-.23,0-.13.03-.27.19-.27.18,0,.22.13.23.28.01.13-.05.2-.17.22Z"/></svg>